<?xml version="1.0" standalone="no"?>
<!DOCTYPE svg PUBLIC "-//W3C//DTD SVG 1.1//EN" "http://www.w3.org/Graphics/SVG/1.1/DTD/svg11.dtd" >
<svg xmlns="http://www.w3.org/2000/svg" xmlns:xlink="http://www.w3.org/1999/xlink" version="1.1">
<metadata>
Created by FontForge 20170731 at Wed Jun 14 02:07:29 2017
 By Aleksey,,,
</metadata>
<defs>
<font id="icomoon" horiz-adv-x="1024" >
  <font-face 
    font-family="icomoon"
    font-weight="400"
    font-stretch="normal"
    units-per-em="1024"
    panose-1="0 0 0 0 0 0 0 0 0 0"
    ascent="960"
    descent="-64"
    bbox="4 -40 2551 944"
    underline-thickness="0"
    underline-position="0"
    unicode-range="U+0001-FFFD"
  />
<missing-glyph 
 />
    <glyph glyph-name=".notdef" unicode="&#xfffd;" 
 />
    <glyph glyph-name="glyph1" horiz-adv-x="0" 
d="M0 0v0v0v0z" />
    <glyph glyph-name="glyph1" horiz-adv-x="0" 
d="M0 0v0v0v0z" />
    <glyph glyph-name="nonmarkingreturn" horiz-adv-x="341" 
 />
    <glyph glyph-name="uni0001" horiz-adv-x="0" 
d="M0 0v0v0v0z" />
    <glyph glyph-name="space" unicode=" " horiz-adv-x="512" 
d="M0 0v0v0v0z" />
    <glyph glyph-name="uniE900" unicode="&#xe900;" horiz-adv-x="2560" 
d="M2164 584h87v-264h80v264h86v62h-253v-62zM1092 652q-60 0 -89 -24.5t-37 -38.5l-2 -3v-66l2 -3q9 -15 29.5 -31t74.5 -28l31 -7q21 -4 29.5 -9.5t12.5 -11.5v-29q-6 -9 -19 -16t-32 -7q-24 0 -35.5 9t-14.5 14v40h-78v-60l2 -3q8 -14 37 -39t89 -25q58 0 87 23t39 41
l2 3v73l-2 3q-11 19 -33 33.5t-70 26.5l-31 7q-22 5 -30.5 10t-11.5 10v22q5 9 18 16t32 7q20 0 32.5 -7.5t18.5 -15.5v-37h77v57l-2 3q-8 14 -37 38.5t-89 24.5v0zM1753 449l-108 197h-86v-326h76v198l109 -198h86v326h-77v-197zM2472 646h79v-326h-79v326v0zM1349 456h133
v63h-133v65h142v62h-221v-326h225v62h-146v74zM1973 646l-95 -282v-44h66l27 87h96l28 -87h70v42l-96 284h-96v0zM1990 466l30 90l28 -90h-58zM119 291l1 -1v-1l-1 2v0zM672 625l1 -1l-1 2v-1zM673 623h-391l-47 -83l47 -83h161l17 -31l-14 -25h-195l-80 139l80 139h390
l-42 75l-32 55h-372l-186 -326l80 -140h391l48 83l-48 84h-161l-17 30l14 25h196l79 -139l-79 -138h-391l74 -130h372l186 325z" />
    <glyph glyph-name="uniE901" unicode="&#xe901;" 
d="M710 3q-3 0 -6.5 0.5t-5.5 0.5h-1q-48 3 -89.5 18.5t-73.5 31.5q-41 21 -79.5 46.5t-74 54.5t-68 62.5t-62.5 71.5q-49 62 -83 121.5t-56 122.5q-9 26 -18 64.5t-6 82.5q3 28 14 53t30 45l61 65q16 16 35 24.5t39 8.5t38.5 -8.5t34.5 -24.5q9 -9 17.5 -18t16.5 -17v0
q4 -5 8 -9l8 -8l48 -52q33 -35 33 -78t-33 -78q-2 -2 -3.5 -4t-3.5 -4l-4 -4t-4 -3l-3 -4q-7 -8 -14 -15.5t-15 -14.5q8 -15 17.5 -30.5t23.5 -33.5q33 -43 68 -76.5t73 -59.5q3 -2 7 -4l8 -4l1 -1v0h1l45 48q17 17 36 26t39 9t39 -9t35 -26l97 -103q16 -17 24.5 -36.5
t8.5 -41.5q0 -21 -8.5 -40.5t-23.5 -36.5q-5 -6 -11 -12l-13 -13l-2 -2q-7 -8 -14 -15t-13 -14v-1l-2 -2q-23 -26 -52 -39.5t-64 -13.5v0zM700 42h4.5h5.5q26 0 47.5 9.5t39.5 29.5v0v0v1q7 8 14.5 16t15.5 17l3 2l12.5 12.5t9.5 11.5q11 11 16.5 24.5t5.5 26.5
q0 14 -5.5 27t-16.5 24l-97 104q-11 11 -22.5 16.5t-23.5 5.5t-24 -5.5t-23 -16.5l-66 -70l-13 7q-2 1 -4.5 2.5t-4.5 2.5q-1 1 -2 1.5t-2 0.5l-1 1q-5 2 -9.5 4.5t-8.5 5.5q-41 28 -78.5 63.5t-72.5 81.5v0q-17 23 -29.5 43t-20.5 41l-5 12l9 9q10 9 19 18.5t18 19.5l4 4
q1 2 3 4t4 3q2 3 4 5t3 4q23 24 23 51.5t-23 51.5l-48 51q-4 5 -8.5 9t-8.5 9q-7 8 -15.5 16.5t-16.5 17.5h-1q-10 11 -21.5 16.5t-23.5 5.5t-24 -5.5t-23 -16.5v0l-60 -64q-15 -16 -23 -34.5t-10 -40.5q-3 -38 5 -72.5t16 -58.5q21 -60 53.5 -117t79.5 -116
q28 -36 59.5 -68t65.5 -60t70.5 -52t75.5 -44q30 -15 68 -29.5t81 -17.5v0zM559 698q35 -7 66 -24t56 -43q26 -27 42 -60t22 -69q1 -10 8 -15.5t15 -5.5h2h2q10 2 16 10.5t4 18.5q-7 45 -26.5 84.5t-50.5 71.5q-30 32 -68 53t-80 28q-10 2 -18 -4t-9 -16q-2 -10 3.5 -19
t15.5 -10v0zM944 518q-12 73 -44 138.5t-82 118.5q-51 53 -113 86.5t-131 46.5q-10 2 -18 -4t-10 -17q-1 -10 4.5 -18.5t15.5 -10.5q62 -11 117.5 -41.5t100.5 -77.5t73.5 -105.5t39.5 -124.5q1 -9 8 -15t15 -6q1 0 2 0.5t2 0.5q10 1 16 9.5t4 19.5v0z" />
    <glyph glyph-name="uniE902" unicode="&#xe902;" 
d="M874 812h-724q-48 0 -82.5 -34t-34.5 -83v-494q0 -49 34.5 -83t82.5 -34h724q48 0 82.5 34t34.5 83v494q0 49 -34.5 83t-82.5 34v0v0zM937 201q0 -27 -18.5 -45.5t-44.5 -18.5h-724q-26 0 -44.5 18.5t-18.5 45.5v494q0 26 18.5 45t44.5 19h724q26 0 44.5 -19t18.5 -45
v-494v0zM637 454l234 210q8 8 9 19t-7 19q-7 8 -18 8.5t-20 -6.5l-323 -290l-63 56v1v0l-2 2l-2 2l-257 229q-8 8 -19 7t-18 -9q-8 -8 -7.5 -19t9.5 -19l237 -212l-236 -221q-8 -7 -8.5 -18t7.5 -19q4 -5 9 -7t10 -2t9.5 2t8.5 5l240 224l65 -58q4 -3 8.5 -4.5t9.5 -1.5
q4 0 9 1.5t9 4.5l66 60l238 -226q4 -4 9 -5.5t10 -1.5t10 2t9 6q8 8 7.5 19t-8.5 19l-235 223v0z" />
    <glyph glyph-name="uniE903" unicode="&#xe903;" 
d="M28 448q0 100 38 188.5t103.5 154t154 103.5t188.5 38t188.5 -38t154 -103.5t103.5 -154t38 -188.5t-38 -188.5t-103.5 -154t-154 -103.5t-188.5 -38t-188.5 38t-154 103.5t-103.5 154t-38 188.5v0zM928 448q0 86 -33 162t-89 132t-132 89t-162 33t-162 -33t-132 -89
t-89 -132t-33 -162t33 -162t89 -132t132 -89t162 -33t162 33t132 89t89 132t33 162zM477 285h76v-64h-76v64v0zM390 666q19 20 51 35t65 15q30 0 60.5 -13.5t49.5 -30.5q18 -18 27.5 -45.5t9.5 -54.5q0 -17 -2.5 -36.5t-7.5 -32.5q-4 -12 -18.5 -26.5l-34.5 -34.5
q-15 -14 -24 -26t-13 -22q-5 -10 -5.5 -24.5t-0.5 -33.5h-69q0 22 2.5 40t8.5 31q5 14 13 30.5t26 33.5l22 24q5 6 9.5 11.5t8.5 10.5q6 10 9 20.5t3 21.5q0 15 -4.5 28t-13.5 24q-9 12 -19 16.5t-31 4.5q-26 0 -44 -10t-27 -29q-6 -10 -9 -25.5t-4 -35.5h-70q0 33 7 73
t25 61l-9 -10.5t9 10.5v0z" />
    <glyph glyph-name="uniE904" unicode="&#xe904;" 
d="M995 638l-471 196q-6 2 -12 2t-12 -2l-471 -196q-12 -4 -18.5 -16t-6.5 -26t7 -25.5t18 -16.5l183 -76v-231q0 -9 2.5 -16.5t6.5 -13.5q29 -38 62.5 -67t71 -49.5t78 -31t81.5 -10.5t80.5 10t76.5 29.5t70 47.5t61 64q5 7 7.5 14.5t2.5 16.5v237l76 31v-111
q-7 -6 -10.5 -15.5t-3.5 -19.5v-109q0 -18 10.5 -31t25.5 -13t26 13t11 31v109q0 10 -4 19.5t-10 15.5v130l62 26q12 5 18.5 16.5t6.5 25.5t-6.5 26t-18.5 16v0v0zM753 247q-48 -58 -109.5 -88.5t-129.5 -30.5q-69 0 -132.5 32.5t-112.5 91.5v196l231 -96q3 -1 6 -1.5
t6 -0.5q4 0 7 0.5t6 1.5l228 95v-200v0v0zM513 432l-397 164l396 165l396 -165z" />
    <glyph glyph-name="uniE905" unicode="&#xe905;" 
d="M926 571v134q0 52 -40 89t-97 39v-79q0 -34 -23.5 -58t-57.5 -24t-58 24t-24 58v79h-231v-79q0 -34 -24 -58t-57 -24q-34 0 -58 24t-24 58v79q-56 -3 -95 -40t-39 -88v-560q0 -58 41 -99.5t100 -41.5h546q59 0 100 41.5t41 99.5v426v0zM865 145q0 -33 -23.5 -56.5
t-56.5 -23.5h-546q-33 0 -56.5 23.5t-23.5 56.5v426h706v-426v0v0zM278 856v-102q0 -15 10.5 -25.5t25.5 -10.5q14 0 24.5 10.5t10.5 25.5v102q0 15 -10.5 25.5t-24.5 10.5q-15 0 -25.5 -10.5t-10.5 -25.5v0v0zM708 892q-15 0 -25.5 -10.5t-10.5 -25.5v-102
q0 -15 10.5 -25.5t25.5 -10.5t25 10.5t10 25.5v102q0 15 -10 25.5t-25 10.5v0v0z" />
    <glyph glyph-name="uniE906" unicode="&#xe906;" 
d="M512 457q-43 0 -73.5 30.5t-30.5 72.5q0 43 30.5 73.5t73.5 30.5t73.5 -30.5t30.5 -73.5q0 -42 -30.5 -72.5t-73.5 -30.5v0zM512 630q-29 0 -49.5 -20.5t-20.5 -49.5t20.5 -49t49.5 -20t49.5 20t20.5 49t-20.5 49.5t-49.5 20.5zM512 -18l-280 353q-38 48 -57.5 104
t-19.5 117q0 74 28 139t76.5 113.5t113.5 76.5t139 28t139 -28t113.5 -76.5t76.5 -113.5t28 -139q0 -61 -19.5 -117t-57.5 -104l-280 -353v0zM512 841q-59 0 -111 -22.5t-90.5 -61t-61 -90.5t-22.5 -111q0 -48 15.5 -93t45.5 -83l224 -281l224 281q30 38 45.5 83t15.5 93
q0 59 -22.5 111t-61 90.5t-90.5 61t-111 22.5v0zM512 380q-75 0 -128 53t-53 127q0 75 53 128t128 53t128 -53t53 -128q0 -74 -53 -127t-128 -53zM512 669q-45 0 -76.5 -32t-31.5 -77q0 -44 31.5 -76t76.5 -32t76.5 32t31.5 76q0 45 -31.5 77t-76.5 32z" />
    <glyph glyph-name="uniE907" unicode="&#xe907;" 
d="M951 737q-8 9 -19 13.5t-23 4.5h-227v75q0 11 -7.5 19t-19.5 8h-286q-12 0 -20 -8t-8 -19v-75h-226q-12 0 -23 -4.5t-19 -13.5q-9 -8 -13 -19t-4 -23v-597q0 -12 4 -22.5t13 -19.5q8 -9 19 -13t23 -4h794q12 0 23 4t19 13q9 9 13 19.5t4 22.5v597q0 12 -4 23t-13 19v0v0z
M396 803h232v-48h-232v48zM250 93h-135q-1 0 -3 2t-2 3v597q0 3 1.5 4t3.5 1h135v-607v0zM719 93h-413v607h413v-607v0v0zM914 98q0 -2 -1.5 -3.5t-3.5 -1.5h-135v607h135q2 0 3.5 -1t1.5 -4v-597v0z" />
    <glyph glyph-name="uniE908" unicode="&#xe908;" 
d="M745 456q-9 10 -23.5 11t-24.5 -9q-11 -9 -11.5 -23.5t9.5 -24.5q31 -35 48 -78.5t17 -90.5v-147q0 -5 -3.5 -9t-8.5 -4h-472q-5 0 -9 4t-4 9v147q0 52 19.5 97t53.5 79t79 53.5t97 19.5q47 0 88 18t72 48.5t49 72t18 88.5t-18 88.5t-48.5 72t-72 48.5t-88.5 18
t-88.5 -18t-72.5 -48.5t-48.5 -72t-17.5 -88.5q0 -28 6.5 -55.5t20.5 -52.5q6 -12 20 -16t26 2q13 7 17 20.5t-3 26.5q-9 17 -14 36t-5 39q0 65 46.5 111.5t112.5 46.5q65 0 111.5 -46.5t46.5 -111.5q0 -66 -46.5 -112.5t-111.5 -46.5q-66 0 -123.5 -25t-100.5 -68
t-68 -100.5t-25 -123.5v-147q0 -34 23.5 -58t57.5 -24h472q34 0 57.5 24t23.5 58v147q0 60 -21.5 115.5t-62.5 99.5v0v0z" />
    <glyph glyph-name="uniE909" unicode="&#xe909;" 
d="M902 669h-131v196q0 10 -7 17t-17 7h-465q-10 0 -17 -7t-7 -17v-196h-136q-10 0 -17 -7.5t-7 -17.5v-614q0 -10 7 -17t17 -7h780q10 0 17 7t7 17v614q0 10 -7 17.5t-17 7.5v0v0zM770 238h-511v75h511v-75zM318 190h172v-136h-172v136zM539 54v136h172v-136h-172zM878 54
h-119v136h35q10 0 17 7t7 17v123q0 10 -7 17t-17 7h-559q-10 0 -17 -7t-7 -17v-123q0 -10 7 -17t17 -7h35v-136h-124v566h732v-566v0zM723 841v-172h-417v172h417z" />
    <glyph glyph-name="uniE90A" unicode="&#xe90a;" 
d="M842 672h-544q-34 0 -58 24t-24 58t24 58t58 24h544q14 0 24 10t10 24t-10 24t-24 10h-544q-62 0 -106 -44t-44 -106v-612q0 -62 44 -106t106 -44h403q14 0 24 10t10 24t-10 24t-24 10h-403q-34 0 -58 24t-24 58v487q17 -12 38 -18.5t44 -6.5h510v-578q0 -14 10 -24
t24 -10t24 10t10 24v612q0 14 -10 24t-24 10v0v0zM842 786h-536q-14 0 -24 -10t-10 -24t10 -24t24 -10h536q14 0 24 10t10 24t-10 24t-24 10v0zM655 491h-286q-14 0 -24 -10t-10 -24v-246q0 -14 10 -24t24 -10h286q14 0 24 10t10 24v246q0 14 -10 24t-24 10v0v0zM622 244
h-220v179h220v-179v0z" />
    <glyph glyph-name="uniE90B" unicode="&#xe90b;" 
d="M962 301q-2 3 -5.5 5t-6.5 4q-43 16 -87 39t-87.5 52t-86 64.5t-82.5 75.5q-39 39 -73.5 80t-63.5 83.5t-52 85t-39 84.5q-1 4 -2.5 8.5t-4.5 8.5l-2.5 2.5l-3.5 3.5q-4 4 -11.5 7.5t-19.5 3.5q-34 0 -83 -35t-89 -76q-14 -13 -37.5 -39.5t-43.5 -56.5t-28 -59.5t9 -47.5
l3.5 -3.5t3.5 -2.5q3 -2 7 -4t9 -3q36 -14 72.5 -33t73 -42.5t72.5 -51t71 -58.5l-84 -276q-3 -8 -1 -16.5t8 -14.5t14.5 -8.5t17.5 0.5l69 21l46 -57q5 -5 11.5 -8t13.5 -3h3.5t3.5 1q9 2 15.5 8.5t8.5 15.5l34 160q38 -52 67 -104.5t48 -104.5l4 -6t5 -6q6 -5 13.5 -7.5
t15.5 -2.5q20 0 38 9.5t27 14.5q24 15 52 37.5t55 50.5q28 28 50.5 55.5t37.5 51.5q8 12 20.5 42t-6.5 52v0v0zM622 449l-111 -111q-12 14 -25 28l-26 28q-5 4 -9 8l-8 8l107 107l8 -8t9 -8q13 -14 27 -27t28 -25v0v0zM352 793q29 -59 69.5 -118.5t90.5 -115.5l-111 -110
q-56 49 -115.5 89.5t-118.5 69.5q26 16 52.5 38t49.5 45q26 26 47.5 52t35.5 50v0v0zM203 757q37 37 66.5 58.5t47.5 30.5q-8 -18 -29.5 -48t-58.5 -67q-37 -36 -67 -58t-48 -30q9 18 30.5 47.5t58.5 66.5v0v0zM453 136l-18 22q-6 7 -15 10t-18 0l-34 -10l58 189l30 -32
t29 -32l-32 -147v0zM820 140q-43 -43 -75.5 -65.5t-47.5 -27.5q-24 61 -62 124t-87 124l117 117q61 -49 124 -87t125 -62q-6 -15 -28.5 -47.5t-65.5 -75.5v0v0z" />
    <glyph glyph-name="uniE90C" unicode="&#xe90c;" 
d="M512 912q-96 0 -180.5 -36.5t-147.5 -99.5t-99.5 -147.5t-36.5 -180.5t36.5 -180.5t99.5 -147.5t147.5 -99.5t180.5 -36.5t180.5 36.5t147.5 99.5t99.5 147.5t36.5 180.5t-36.5 180.5t-99.5 147.5t-147.5 99.5t-180.5 36.5v0v0zM512 83q-75 0 -141.5 28.5t-116.5 78.5
t-78.5 116.5t-28.5 141.5q0 76 28.5 142t78.5 116t116.5 78.5t141.5 28.5t141.5 -28.5t116.5 -78.5t78.5 -116t28.5 -142q0 -75 -28.5 -141.5t-78.5 -116.5t-116.5 -78.5t-141.5 -28.5v0v0zM754 462h-209v251q0 16 -11 27t-27 11t-27 -11t-11 -27v-289q0 -16 11 -27t27 -11
h247q16 0 27 11t11 27t-11 27t-27 11v0v0z" />
    <glyph glyph-name="uniE90D" unicode="&#xe90d;" 
d="M977 645h-53v3q0 9 -5 16t-13 10q-50 18 -101 27.5t-101 9.5q-48 0 -96 -8.5t-96 -24.5q-48 16 -96 24.5t-96 8.5q-50 0 -101 -9.5t-100 -27.5q-9 -3 -14 -10t-5 -16v-3h-53q-12 0 -20 -8t-8 -19v-529q0 -12 8 -20t20 -8h930q12 0 20 8t8 20v529q0 11 -8 19t-20 8v0v0z
M868 629v-417q-41 12 -82 18t-82 6t-82 -6t-82 -18v417q41 13 82 19.5t82 6.5t82 -6.5t82 -19.5v0zM156 629q41 13 82 19.5t82 6.5t82 -6.5t82 -19.5v-417q-41 12 -82 18t-82 6t-82 -6t-82 -18v417zM74 590h26v-416q0 -7 3.5 -13t8.5 -10q4 -3 8 -4t8 -1q2 0 4.5 0.5
t5.5 1.5q45 16 90.5 24.5t91.5 8.5q41 0 82 -7t82 -20v-38h-410v474zM950 116h-410v38q41 13 82 20t82 7q46 0 91.5 -8.5t90.5 -24.5q7 -3 13.5 -2t12.5 5q5 4 8.5 10t3.5 13v416h26v-474v0zM239 498h145q12 0 20 8t8 20q0 11 -8 19t-20 8h-145q-11 0 -19 -8t-8 -19
q0 -12 8 -20t19 -8v0v0zM412 370q0 12 -8 20t-20 8h-145q-11 0 -19 -8t-8 -20q0 -11 8 -19t19 -8h145q12 0 20 8t8 19v0zM640 498h145q11 0 19 8t8 20q0 11 -8 19t-19 8h-145q-12 0 -20 -8t-8 -19q0 -12 8 -20t20 -8v0zM640 343h145q11 0 19 8t8 19q0 12 -8 20t-19 8h-145
q-12 0 -20 -8t-8 -20q0 -11 8 -19t20 -8v0z" />
    <glyph glyph-name="uniE90E" unicode="&#xe90e;" 
d="M371 483h-123q-11 0 -20.5 4t-16.5 12q-8 7 -12 16.5t-4 20.5v18q0 29 10.5 53.5t31.5 45.5q20 21 45 31t54 10h35q7 0 13.5 2.5t11.5 8.5q5 5 7.5 11t2.5 13v71q0 7 -2.5 13t-7.5 12q-5 5 -11.5 7.5t-13.5 2.5h-35q-28 0 -55.5 -5.5t-53.5 -16.5t-48.5 -26t-41.5 -34
t-34 -41.5t-26 -48.5t-16.5 -53.5t-5.5 -55.5v-387q0 -22 7.5 -41t22.5 -34q16 -16 34.5 -23.5t40.5 -7.5h211q22 0 41 7.5t34 23.5q15 15 23 34t8 41v211q0 22 -8 40.5t-23 33.5q-15 16 -34 23.5t-41 7.5v0v0zM939 452q-16 16 -34.5 23.5t-40.5 7.5h-123q-11 0 -20.5 4
t-17.5 12q-7 7 -11 16.5t-4 20.5v18q0 29 10.5 53.5t30.5 45.5q21 21 46 31t54 10h35q7 0 13 2.5t12 8.5q5 5 7.5 11t2.5 13v71q0 7 -2.5 13t-7.5 12q-6 5 -12 7.5t-13 2.5h-35q-29 0 -56 -5.5t-53 -16.5t-48.5 -26t-41.5 -34t-34 -41.5t-27 -48.5q-11 -26 -16.5 -53.5
t-5.5 -55.5v-387q0 -22 8 -41t23 -34q15 -16 34 -23.5t41 -7.5h211q22 0 40.5 7.5t34.5 23.5q15 15 22.5 34t7.5 41v211q0 22 -7.5 40.5t-22.5 33.5v0v0z" />
    <glyph glyph-name="uniE90F" unicode="&#xe90f;" 
d="M826 878h-628q-48 0 -82 -34t-34 -82v-628q0 -48 34 -82t82 -34h310v307h-80q-7 0 -12.5 5.5t-5.5 13.5l-1 99q0 8 5.5 13.5t13.5 5.5h80v96q0 83 46 127t121 44h81q8 0 13.5 -5.5t5.5 -12.5v-84q0 -8 -5.5 -13.5t-13.5 -5.5h-50q-40 0 -52 -17.5t-12 -45.5v-83h118
q9 0 14.5 -6.5t4.5 -14.5l-12 -99q-1 -7 -6 -12t-13 -5h-106v-307h184q48 0 82 34t34 82v628q0 48 -34 82t-82 34v0v0z" />
    <glyph glyph-name="uniE910" unicode="&#xe910;" 
d="M999 688q-27 -12 -56 -20t-59 -12q31 19 53.5 47.5t34.5 63.5q-29 -18 -61 -30t-66 -19q-27 29 -65 46t-81 17q-41 0 -77.5 -15.5t-63.5 -42.5t-42.5 -63.5t-15.5 -77.5q0 -12 1 -23.5t4 -22.5q-62 3 -120.5 19t-111 43t-98 64t-82.5 83q-13 -22 -20 -47.5t-7 -53.5
q0 -52 24.5 -95.5t64.5 -70.5q-25 1 -47.5 7.5t-42.5 17.5v-2q0 -73 45.5 -127.5t114.5 -68.5q-13 -3 -26 -5t-27 -2q-9 0 -18.5 1t-19.5 3q20 -60 70.5 -99t116.5 -40q-51 -40 -114.5 -62.5t-133.5 -22.5q-12 0 -24 0.5t-24 1.5q34 -21 70 -37.5t74.5 -28t79 -17.5t83.5 -6
q137 0 243 51.5t178 133t109 183t37 199.5v26q29 21 54 47.5t46 56.5v0v0z" />
    <glyph glyph-name="uniE911" unicode="&#xe911;" 
d="M778 234h-50v30q0 9 7 16t17 7h3q10 0 17 -7t7 -16l-1 -30v0zM588 297q-10 0 -16.5 -5.5t-6.5 -13.5v-143q0 -8 6.5 -13.5t16.5 -5.5t17 5.5t7 13.5v143q0 8 -7 13.5t-17 5.5v0zM897 377v-272q0 -49 -37 -84t-89 -35h-518q-52 0 -89 35t-37 84v272q0 49 37 84t89 35h518
q52 0 89 -35t37 -84v0zM288 75v287h64v43h-171v-42h53v-288h54v0zM480 320h-53v-154q0 -16 0.5 -25t-1.5 -12q-3 -9 -14 -13.5t-17 12.5q-1 3 -0.5 12.5t0.5 24.5v155h-54v-152q1 -18 0.5 -30.5t0.5 -18.5q1 -10 2.5 -21t10.5 -18q18 -13 46 -2t36 29v-31h43v244v0v0z
M651 144v128q0 36 -24.5 52t-61.5 -14l1 95h-54v-327h44l4 21q42 -39 66.5 -20t24.5 65v0v0zM819 161h-40v-2.5v-3.5v-22q0 -9 -6.5 -15.5t-15.5 -6.5h-8q-9 0 -15.5 6.5t-6.5 15.5v59h92v35q0 18 -1 36t-2 29q-5 34 -42 40.5t-61 -11.5q-8 -5 -13.5 -12.5t-9.5 -17.5
q-3 -10 -4.5 -23.5t-1.5 -30.5v-76q0 -95 74 -88t61 88v0v0zM613 574q2 -5 5 -9t8 -7q4 -3 9.5 -4.5t12.5 -1.5q5 0 10.5 1.5t9.5 4.5q5 3 8.5 8t6.5 11l-1 -21h60v254h-47v-198q0 -8 -6 -13.5t-14 -5.5t-13.5 5.5t-5.5 13.5v198h-49v-171v-27.5t1 -16.5q0 -5 1.5 -10.5
t3.5 -10.5v0v0zM432 717q0 18 1.5 32.5t4.5 24.5t8.5 18.5t13.5 14.5t18 9.5t23 3.5q10 0 19 -2t16 -6q8 -4 13.5 -9.5t9.5 -11.5q4 -7 7 -13.5t4 -13.5q1 -6 2 -16.5t1 -24.5v-64q0 -18 -0.5 -31t-2.5 -21q-1 -8 -4 -16t-8 -15q-4 -7 -10 -12.5t-12 -8.5q-8 -3 -16 -5
t-17 -2q-10 0 -18.5 1.5t-15.5 4.5t-12.5 7.5t-9.5 10.5q-4 5 -7 12.5t-5 15.5q-1 8 -2 20.5t-1 29.5v67v0v0zM479 616q0 -10 7 -18t17 -8q9 0 16 8t7 18v135q0 11 -7 18.5t-16 7.5q-10 0 -17 -7.5t-7 -18.5v-135v0zM314 548h56v195l67 166h-62l-35 -123l-36 124h-61
l71 -167v-195v0z" />
    <glyph glyph-name="uniE912" unicode="&#xe912;" 
d="M864 431h-704q-7 0 -12 5t-5 12t5 11.5t12 4.5h704q7 0 12 -4.5t5 -11.5t-5 -12t-12 -5v0zM452 19q-3 0 -6 1.5t-6 3.5q-5 5 -5 11.5t5 11.5l401 401l-401 401q-5 4 -5 11t5 12t12 5t11 -5l413 -412q2 -3 3.5 -6t1.5 -6t-1.5 -6t-3.5 -6l-413 -412q-2 -2 -5 -3.5t-6 -1.5
v0v0z" />
    <glyph glyph-name="uniE913" unicode="&#xe913;" 
d="M911 162l-93 95q-1 1 -2 1.5t-2 1.5q31 46 48 101t17 116q0 81 -31 153t-84.5 125.5t-125.5 84.5t-154 31q-81 0 -153 -31t-125.5 -84.5t-84.5 -125.5t-31 -153q0 -82 31 -154t84.5 -125.5t125.5 -84.5t153 -31q61 0 116 17t101 48q1 -1 1.5 -2t1.5 -2l93 -95
q24 -23 57 -23t57 23q23 24 23 57t-23 57v0v0zM484 169q-63 0 -119.5 24t-98 66t-66 98t-24.5 120q0 63 24.5 119.5t66 98t98 66t119.5 24.5q64 0 120 -24.5t98 -66t66 -98t24 -119.5q0 -64 -24 -120t-66 -98t-98 -66t-120 -24v0v0z" />
    <glyph glyph-name="uniE914" unicode="&#xe914;" 
d="M520 672q-41 0 -70 -29t-29 -70t29 -70t70 -29q40 0 69.5 29t29.5 70t-29 70t-70 29v0zM520 935q-76 0 -143 -29t-116.5 -78.5t-78.5 -116.5t-29 -143q0 -64 21 -122t58 -105l288 -361l287 361q37 47 58 105t21 122q0 76 -29 143t-78.5 116.5t-116.5 78.5t-142 29v0v0z
M520 408q-69 0 -117 48.5t-48 116.5q0 69 48 117t117 48q68 0 116.5 -48t48.5 -117q0 -68 -48.5 -116.5t-116.5 -48.5v0z" />
    <glyph glyph-name="uniE915" unicode="&#xe915;" 
d="M907 396l-66 66q-7 7 -14.5 10t-15.5 3t-14.5 -3t-12.5 -8l-53 -52l-211 -212q-3 -3 -4.5 -6t-2.5 -4l-35 -125q-1 -2 -1 -4v-4q0 -8 6.5 -15t16.5 -7h4.5t2.5 1l125 36q3 1 5.5 2t4.5 3l264 264q6 5 9 11.5t4 14.5q0 9 -3 16t-9 13v0v0zM613 115l-78 -22l23 78l190 190
l56 -55l-191 -191v0zM838 339l-57 56l30 30l56 -56zM582 500h-370q-10 0 -17 -7t-7 -17t7 -17t17 -7h370q10 0 17 7t7 17t-7 17t-17 7v0zM606 369q0 11 -7 17.5t-17 6.5h-370q-10 0 -17 -6.5t-7 -17.5q0 -9 7 -16.5t17 -7.5h370q10 0 17 7.5t7 16.5v0zM384 287h-172
q-10 0 -17 -6.5t-7 -16.5t7 -17t17 -7h172q10 0 17 7t7 17t-7 16.5t-17 6.5v0zM384 181h-172q-10 0 -17 -7t-7 -17t7 -17t17 -7h172q10 0 17 7t7 17t-7 17t-17 7v0zM153 86v776q0 2 1 3t4 1h176v-255q0 -22 15 -37.5t36 -15.5h256v-145h48v193h-1l-308 308h-222
q-11 0 -20.5 -4t-16.5 -11q-8 -8 -12 -17t-4 -20v-776q0 -21 15.5 -36t37.5 -15h280v47h-280q-3 0 -4 1t-1 3v0v0zM381 845l240 -239h-236q-2 0 -3 1t-1 4v234v0z" />
    <glyph glyph-name="uniE916" unicode="&#xe916;" 
d="M950 506h-43v195q0 35 -24.5 60t-60.5 25h-57l-59 106q-7 12 -18.5 19t-25.5 7q-7 0 -13 -1.5t-12 -4.5l-226 -126h-252q-35 0 -60 -25t-25 -60v-582q0 -35 25 -60t60 -25h663q36 0 60.5 25t24.5 60v171h43v216v0zM822 752q20 0 34.5 -13t16.5 -32h-64l-25 45h38z
M653 882q6 3 13 1t11 -7l93 -169h-431zM873 119q0 -21 -14.5 -36t-36.5 -15h-663q-21 0 -36 15t-15 36v582q0 21 15 36t36 15h191l-81 -45h-99q-7 0 -12 -5t-5 -12t5 -12t12 -5h703v-167h-124q-43 0 -73.5 -30.5t-30.5 -73.5v-8q0 -43 30.5 -73.5t73.5 -30.5h124v-171v0z
M916 324h-167q-29 0 -49.5 20.5t-20.5 49.5v8q0 29 20.5 49.5t49.5 20.5h167v-148zM801 397q0 -16 -11 -27t-26 -11q-16 0 -27 11t-11 27q0 15 11 26t27 11q15 0 26 -11t11 -26v0z" />
    <glyph glyph-name="uniE917" unicode="&#xe917;" 
d="M802 709h-23v51q0 54 -38.5 92.5t-92.5 38.5h-274q-54 0 -92.5 -38.5t-38.5 -92.5v-51h-21q-54 0 -92.5 -38.5t-38.5 -92.5v-211q0 -54 38.5 -92.5t92.5 -38.5h21v-165q0 -27 19 -46.5t46 -19.5h406q27 0 46 19.5t19 46.5v165h23q54 0 92.5 38.5t38.5 92.5v211
q0 54 -38.5 92.5t-92.5 38.5v0v0zM292 760q0 34 24 57.5t57 23.5h275q34 0 57.5 -23.5t23.5 -57.5v-51h-437v51v0zM729 70q0 -6 -4.5 -11t-10.5 -5h-406q-7 0 -11.5 5t-4.5 11v274h437v-274v0zM883 367q0 -33 -23.5 -57t-57.5 -24h-23v58h33q10 0 17.5 7t7.5 18
q0 10 -7.5 17t-17.5 7h-606q-10 0 -17.5 -7t-7.5 -17q0 -11 7.5 -18t17.5 -7h37v-58h-21q-34 0 -57.5 24t-23.5 57v211q0 34 23.5 58t57.5 24h580q34 0 57.5 -24t23.5 -58v-211v0zM352 222h316q10 0 17 7t7 18q0 10 -7 17.5t-17 7.5h-316q-10 0 -17.5 -7.5t-7.5 -17.5
q0 -11 7.5 -18t17.5 -7v0v0zM670 170h-316q-10 0 -17.5 -7t-7.5 -18q0 -10 7.5 -17t17.5 -7h315q11 0 18 7t7 17q0 11 -7 18t-17 7v0zM801 612h-50q-10 0 -17.5 -7t-7.5 -18q0 -10 7.5 -17.5t17.5 -7.5h50q11 0 18 7.5t7 17.5q0 11 -7 18t-18 7v0v0z" />
    <glyph glyph-name="uniE918" unicode="&#xe918;" 
d="M844 699v1v1v0v0l-1 1v1v0v0v0.5v1.5h-1v0v0.5v0.5v0v0l-1 1v1v0v0q-1 0 -1 0.5v0.5v0.5v0.5h-1v1h-0.5h-0.5l-185 186h-0.5h-0.5v0.5t-1 0.5v0v0l-0.5 0.5l-0.5 0.5v0h-1l-0.5 0.5l-0.5 0.5v0v0l-0.5 0.5t-1.5 0.5v0v0h-0.5h-0.5v0h-1q0 1 -0.5 1h-0.5h-0.5h-0.5h-0.5
h-0.5h-1h-1h-408q-21 0 -36 -15t-15 -36v-787q0 -22 15 -37t36 -15h562q21 0 36 15t15 37v633v1.5v0.5v0v0zM658 836l120 -119h-107q-5 0 -9 3.5t-4 8.5v107v0zM805 64q0 -5 -3.5 -9t-8.5 -4h-562q-5 0 -8.5 4t-3.5 9v787q0 5 3.5 8.5t8.5 3.5h389v-134q0 -21 15 -36t36 -15
h134v-614v0zM736 571h-189q-8 0 -14 -6t-6 -14t6 -13.5t14 -5.5h189q8 0 13.5 5.5t5.5 13.5t-5.5 14t-13.5 6v0zM626 476h-79q-8 0 -14 -5.5t-6 -13.5t6 -14t14 -6h79q8 0 13.5 6t5.5 14t-5.5 13.5t-13.5 5.5v0v0zM438 543q-6 5 -14 5t-14 -5l-36 -36l-19 19q-6 6 -14 6
t-14 -6q-5 -6 -5 -14t5 -13l34 -34q2 -2 5.5 -3.5t7.5 -1.5v0q4 0 7.5 1.5t6.5 3.5l50 50q6 6 6 14t-6 14v0v0zM477 618h-189q-8 0 -13.5 -5.5t-5.5 -13.5v-189q0 -8 5.5 -14t13.5 -6h189q8 0 13.5 6t5.5 14v188q0 9 -5.5 14.5t-13.5 5.5v0v0zM458 429h-151v150h151v-150v0z
M736 282h-189q-8 0 -14 -6t-6 -14t6 -13.5t14 -5.5h189q8 0 13.5 5.5t5.5 13.5t-5.5 14t-13.5 6v0zM626 187h-79q-8 0 -14 -5.5t-6 -13.5t6 -14t14 -6h79q8 0 13.5 6t5.5 14t-5.5 13.5t-13.5 5.5v0v0zM477 329h-189q-8 0 -13.5 -5.5t-5.5 -14.5v-188q0 -8 5.5 -14t13.5 -6
h189q8 0 13.5 6t5.5 14v188q0 9 -5.5 14.5t-13.5 5.5v0v0zM458 140h-151v150h151v-150v0z" />
    <glyph glyph-name="uniE919" unicode="&#xe919;" 
d="M847 691l-191 192q-4 4 -9.5 6t-11.5 2h-442q-12 0 -20.5 -8.5t-8.5 -20.5v-828q0 -12 8.5 -21t20.5 -9h633q12 0 21 9t9 21v636q0 6 -2.5 11.5t-6.5 9.5v0v0zM664 791l91 -91h-91v91v0zM223 63v769h382v-162q0 -12 9 -20.5t21 -8.5h162v-578h-574v0zM513 483
q-4 9 -11.5 14t-16.5 5t-16.5 -5t-10.5 -14l-98 -243q-4 -12 1 -23t16 -16q11 -4 22.5 0.5t15.5 16.5l12 30h116l12 -30q4 -9 11.5 -14t16.5 -5q2 0 5 0.5t6 1.5q11 5 16 16t0 23l-97 243v0zM451 307l34 86l35 -86h-69zM698 493h-24v24q0 12 -8.5 20.5t-20.5 8.5
q-13 0 -21.5 -8.5t-8.5 -20.5v-24h-24q-12 0 -20.5 -8.5t-8.5 -21.5q0 -12 8.5 -20.5t20.5 -8.5h24v-24q0 -12 8.5 -21t21.5 -9q12 0 20.5 9t8.5 21v24h24q12 0 20.5 8.5t8.5 20.5q0 13 -8.5 21.5t-20.5 8.5v0v0z" />
    <glyph glyph-name="uniE91A" unicode="&#xe91a;" 
d="M512 678q-63 0 -107.5 -44.5t-44.5 -107.5v-152q0 -63 44.5 -107.5t107.5 -44.5t107.5 44.5t44.5 107.5v152q0 63 -44.5 107.5t-107.5 44.5v0zM639 378q0 -52 -37.5 -89t-89.5 -37t-89.5 37t-37.5 89v143q0 52 37.5 89.5t89.5 37.5t89.5 -37.5t37.5 -89.5v-143zM513 605
q-4 0 -6.5 -2t-2.5 -5v-58q0 -3 2.5 -4.5t6.5 -1.5q3 0 6 1.5t3 4.5v58q0 3 -3 5t-6 2zM513 839l56 -36l8 11l-64 41l-64 -41l7 -11zM513 784l56 -36l8 11l-64 41l-64 -41l7 -11zM513 35l-57 37l-7 -11l64 -42l64 42l-8 11zM513 90l-57 37l-7 -11l64 -42l64 42l-8 11z" />
    <glyph glyph-name="uniE91B" unicode="&#xe91b;" 
d="M901 352q-8 0 -13.5 -6t-5.5 -13v-235h-156v326h175q8 0 13.5 5.5t5.5 13.5t-5.5 13.5t-13.5 5.5h-194q-8 0 -13.5 -5.5t-5.5 -13.5v-9l-121 120q-13 14 -32 17.5t-36 -2.5q30 28 46 65.5t16 78.5q0 55 -28 102.5t-77 73.5q-4 3 -9 2.5t-10 -2.5q-4 -3 -6.5 -7t-2.5 -9
v-169h-135v169q0 5 -2.5 9t-7.5 7q-4 2 -9 2.5t-9 -2.5q-49 -26 -77 -73.5t-28 -102.5q0 -45 18.5 -84.5t52.5 -68.5v-49h-34q-26 0 -45 -19t-19 -46v-1q0 -13 5 -24.5t14 -20.5q-9 -9 -14 -20.5t-5 -24.5v-1q0 -14 5 -25.5t14 -20.5q-9 -9 -14 -20.5t-5 -24.5v-1
q0 -13 5 -25t14 -21q-9 -8 -14 -20t-5 -25v-1q0 -27 19 -45.5t45 -18.5h38q9 -44 44 -72t80 -28h3q45 0 80 28.5t44 71.5h151q8 0 13.5 5.5t5.5 13.5q0 7 -5.5 13t-13.5 6h-148v156q0 8 -5.5 13.5t-13.5 5.5q-7 0 -12.5 -5.5t-5.5 -13.5v-166q0 -38 -26.5 -64t-63.5 -26h-3
q-29 0 -52.5 17t-32.5 45h30q26 0 45 18.5t19 45.5v1q0 13 -5 25t-14 20q9 9 14 21t5 25v1q0 13 -5 24.5t-14 20.5q9 9 14 20.5t5 25.5v1q0 13 -5 24.5t-14 20.5q9 9 14 20.5t5 24.5v1q0 27 -19 46t-45 19h-35v58q0 5 -2 8.5t-5 6.5q-31 23 -47.5 57t-16.5 72q0 36 15 68.5
t42 55.5v-152q0 -8 5.5 -13.5t13.5 -5.5h173q8 0 13.5 5.5t5.5 13.5v152q27 -23 42 -55.5t15 -68.5q0 -38 -17 -72t-47 -57q-4 -3 -5.5 -6.5t-1.5 -8.5v-40l-51 -50q-9 -9 -14 -21t-5 -25q0 -12 5 -24t14 -21l1 -1q9 -9 21 -14t24 -5q13 0 24.5 5t21.5 14l37 38q6 6 6 13.5
t-6 13.5q-5 5 -13 5t-13 -5l-38 -38q-8 -8 -19 -8t-18 8l-1 1q-4 3 -6 8t-2 10q0 6 2 10.5t6 8.5l75 75q8 8 19 8t18 -8h0.5h0.5l147 -147v-301q0 -8 5.5 -13.5t13.5 -5.5h194q8 0 13.5 5.5t5.5 13.5v254q0 7 -5.5 13t-13.5 6v0v0zM330 355v-1q0 -11 -8 -19t-18 -8h-107
q-11 0 -18.5 8t-7.5 19v1q0 11 7.5 18.5t18.5 7.5h107q10 0 18 -7.5t8 -18.5v0zM330 263v-1q0 -11 -8 -19t-18 -8h-107q-11 0 -18.5 8t-7.5 19v1q0 11 7.5 18.5t18.5 7.5h107q10 0 18 -7.5t8 -18.5v0zM330 170q0 -11 -8 -18.5t-18 -7.5h-107q-11 0 -18.5 7.5t-7.5 18.5v1
q0 11 7.5 18.5t18.5 7.5h107q10 0 18 -7.5t8 -18.5v-1zM330 446v-1q0 -11 -8 -18.5t-18 -7.5h-107q-11 0 -18.5 7.5t-7.5 18.5v1q0 11 7.5 19t18.5 8h107q10 0 18 -8t8 -19v0z" />
    <glyph glyph-name="uniE91C" unicode="&#xe91c;" 
d="M65 472h229v229h-229v-229v0zM105 661h149v-149h-149v149zM65 222h229v229h-229v-229v0zM105 411h149v-149h-149v149zM355 655h600v-45h-600v45v0zM355 575h431v-45h-431v45v0zM355 418h600v-45h-600v45v0zM355 339h431v-45h-431v45v0z" />
    <glyph glyph-name="uniE91D" unicode="&#xe91d;" 
d="M803 -26h-595q-48 0 -81.5 33.5t-33.5 80.5v671q0 47 33.5 80.5t81.5 33.5h595q47 0 80.5 -33.5t33.5 -80.5v-671q0 -47 -33.5 -80.5t-80.5 -33.5v0zM208 818q-25 0 -42.5 -17.5t-17.5 -41.5v-671q0 -25 17.5 -42t42.5 -17h595q24 0 41.5 17t17.5 42v671q0 24 -17.5 41.5
t-41.5 17.5h-595v0zM718 927h55v-163h-55v163zM558 927h55v-163h-55v163zM398 927h55v-163h-55v163zM238 927h55v-163h-55v163zM431 469h-166q-25 0 -43 18t-18 43v98q0 25 18 42.5t43 17.5h166q25 0 43 -17.5t18 -42.5v-98q0 -25 -18 -43t-43 -18v0zM265 633
q-3 0 -4.5 -1.5t-1.5 -3.5v-98q0 -3 1.5 -4.5t4.5 -1.5h166q2 0 4 1.5t2 4.5v98q0 2 -2 3.5t-4 1.5h-166v0zM668 497q-9 0 -17 3.5t-14 9.5l-62 61l39 39l54 -54l97 97l39 -39l-104 -104q-6 -6 -14.5 -9.5t-17.5 -3.5v0v0zM431 158h-166q-25 0 -43 18t-18 43v98
q0 25 18 42.5t43 17.5h166q25 0 43 -17.5t18 -42.5v-98q0 -25 -18 -43t-43 -18v0zM265 323q-3 0 -4.5 -2t-1.5 -4v-98q0 -2 1.5 -4t4.5 -2h166q2 0 4 2t2 4v98q0 2 -2 4t-4 2h-166v0zM668 186q-9 0 -17 3.5t-14 9.5l-62 62l39 38l54 -54l97 97l39 -39l-104 -104
q-6 -6 -14.5 -9.5t-17.5 -3.5v0v0z" />
    <glyph glyph-name="uniE91E" unicode="&#xe91e;" 
d="M846 5l-123 264q-2 4 -5 6.5t-7 4.5l-61 28l106 179l1 1v1q16 31 24 64.5t8 69.5q0 59 -22.5 113t-64.5 96q-41 41 -95 63t-113 21q-57 -1 -109 -23.5t-93 -63.5q-40 -41 -62 -94t-22 -111q0 -35 8 -69.5t24 -65.5v-1v-1l107 -179l-62 -28q-4 -2 -7 -5t-5 -6l-123 -264
q-3 -6 -1.5 -13.5t6.5 -12.5t12 -6.5t14 1.5l154 69l154 -69q4 -2 9 -2t10 2l154 69l154 -69q3 -1 5 -1.5t5 -0.5q4 0 8.5 2t7.5 5q5 5 6.5 12.5t-2.5 13.5v0zM280 511q-13 26 -19.5 54.5t-6.5 58.5q0 50 19 94.5t52 78t76.5 53t93.5 20.5q49 0 94.5 -18t80.5 -54
q35 -35 54 -80t19 -95q0 -30 -6.5 -58t-20.5 -54l-198 -336q-4 -8 -10.5 -10t-9.5 -2t-9 2t-10 10l-199 336v0zM671 90q-4 2 -9 2t-9 -2l-155 -69l-154 69q-4 2 -9 2t-10 -2l-106 -48l92 199l59 26l69 -116q9 -16 25 -25t34 -9q19 0 34.5 9t25.5 25l68 116l59 -26l93 -199z
M498 729q-43 0 -74 -31.5t-31 -74.5q0 -44 31 -75.5t74 -31.5q44 0 75 31.5t31 75.5q0 43 -31 74.5t-75 31.5v0zM498 563q-24 0 -41.5 17.5t-17.5 42.5q0 24 17.5 41.5t41.5 17.5q25 0 42 -17.5t17 -41.5q0 -25 -17 -42.5t-42 -17.5z" />
    <glyph glyph-name="uniE91F" unicode="&#xe91f;" 
d="M645 399q-18 0 -31.5 -13t-13.5 -31t13.5 -31.5t31.5 -13.5t31.5 13.5t13.5 31.5t-13.5 31t-31.5 13v0zM645 533q-18 0 -31.5 -13t-13.5 -31q0 -19 13.5 -32t31.5 -13t31.5 13t13.5 32q0 18 -13.5 31t-31.5 13v0v0zM511 399q-18 0 -31 -13t-13 -31t13 -31.5t31 -13.5
q19 0 32 13.5t13 31.5t-13 31t-32 13v0v0zM511 533q-18 0 -31 -13t-13 -31q0 -19 13 -32t31 -13q19 0 32 13t13 32q0 18 -13 31t-32 13v0v0zM378 622h267q18 0 31.5 13.5t13.5 31.5t-13.5 31.5t-31.5 13.5h-267q-19 0 -32 -13.5t-13 -31.5t13 -31.5t32 -13.5v0v0zM378 177v0
q18 0 31 13t13 31q0 19 -13 32t-31 13q-19 0 -32 -13t-13 -32q0 -18 13 -31t32 -13v0zM779 890h-535q-37 0 -63 -26t-26 -63v-714q0 -36 26 -62.5t63 -26.5h535q37 0 63 26.5t26 62.5v714q0 37 -26 63t-63 26v0zM806 51h-589v786h589v-786v0zM511 266q-18 0 -31 -13t-13 -32
q0 -18 13 -31t31 -13q19 0 32 13t13 31q0 19 -13 32t-32 13v0v0zM378 310v0q18 0 31 13.5t13 31.5t-13 31t-31 13q-19 0 -32 -13t-13 -31t13 -31.5t32 -13.5v0zM378 444v0q18 0 31 13t13 32q0 18 -13 31t-31 13q-19 0 -32 -13t-13 -31q0 -19 13 -32t32 -13v0zM645 266
q-18 0 -31.5 -13t-13.5 -32q0 -18 13.5 -31t31.5 -13t31.5 13t13.5 31q0 19 -13.5 32t-31.5 13v0z" />
    <glyph glyph-name="uniE920" unicode="&#xe920;" 
d="M514 688q-25 0 -42.5 -17.5t-17.5 -42.5t17.5 -43t42.5 -18t42.5 18t17.5 43t-17.5 42.5t-42.5 17.5v0zM514 507q-25 0 -42.5 -17.5t-17.5 -42.5v-182q0 -25 17.5 -42.5t42.5 -17.5t42.5 17.5t17.5 42.5v182q0 25 -17.5 42.5t-42.5 17.5v0v0zM514 930q-100 0 -188 -38
t-153.5 -104t-103.5 -154t-38 -187q0 -100 38 -188t103.5 -154t153.5 -104t188 -38t188 38t153.5 104t103.5 154t38 188q0 99 -38 187t-103.5 154t-153.5 104t-188 38v0zM514 54q-81 0 -152.5 31t-125 84t-84.5 124.5t-31 153.5q0 81 31 152.5t84.5 124.5t125 84t152.5 31
t152.5 -31t125 -84t84.5 -124.5t31 -152.5q0 -82 -31 -153.5t-84.5 -124.5t-125 -84t-152.5 -31v0v0z" />
    <glyph glyph-name="uniE921" unicode="&#xe921;" 
d="M964 636q5 5 7.5 11t2.5 12q0 7 -2.5 13t-7.5 10q-9 10 -23 10t-23 -10l-409 -408l-408 408q-10 10 -23.5 10t-23.5 -10q-9 -9 -9 -22.5t9 -23.5l432 -433q10 -9 23.5 -9t22.5 9l432 433v0z" />
    <glyph glyph-name="uniE922" unicode="&#xe922;" 
d="M940 690h-50v3q0 8 -4.5 14.5t-12.5 9.5q-46 17 -92.5 25.5t-93.5 8.5q-44 0 -88.5 -8t-88.5 -23q-44 15 -88.5 23t-89.5 8q-46 0 -93 -8.5t-93 -25.5q-8 -3 -12.5 -9.5t-4.5 -14.5v-3h-49q-11 0 -18.5 -7.5t-7.5 -17.5v-489q0 -11 7.5 -18.5t18.5 -7.5h860
q10 0 17.5 7.5t7.5 18.5v489q0 10 -7.5 17.5t-17.5 7.5v0v0zM839 675v-385q-38 11 -76 16.5t-76 5.5t-76 -5.5t-76 -16.5v385q38 12 76 18.5t76 6.5t76 -6.5t76 -18.5v0v0zM180 675q38 12 76 18.5t76 6.5t76 -6.5t76 -18.5v-385q-38 11 -76 16.5t-76 5.5t-76 -5.5t-76 -16.5
v385v0zM105 639h24v-385q0 -6 3 -11.5t8 -9.5q3 -2 7 -3t8 -1h4t4 1q42 15 84.5 23t84.5 8q38 0 76 -6.5t76 -18.5v-35h-379v438v0zM914 201h-379v35q38 12 76 18.5t76 6.5q42 0 84.5 -8t84.5 -23q6 -2 12 -1t11 4q5 4 8 9.5t3 11.5v385h24v-438v0zM258 554h134
q10 0 17.5 7.5t7.5 18.5q0 10 -7.5 17.5t-17.5 7.5h-134q-11 0 -18.5 -7.5t-7.5 -17.5q0 -11 7.5 -18.5t18.5 -7.5v0zM417 436q0 11 -7.5 18.5t-17.5 7.5h-134q-11 0 -18.5 -7.5t-7.5 -18.5q0 -10 7.5 -17.5t18.5 -7.5h134q10 0 17.5 7.5t7.5 17.5v0zM628 554h134
q10 0 17.5 7.5t7.5 18.5q0 10 -7.5 17.5t-17.5 7.5h-134q-11 0 -18.5 -7.5t-7.5 -17.5q0 -11 7.5 -18.5t18.5 -7.5v0zM628 411h134q10 0 17.5 7.5t7.5 17.5q0 11 -7.5 18.5t-17.5 7.5h-134q-11 0 -18.5 -7.5t-7.5 -18.5q0 -10 7.5 -17.5t18.5 -7.5v0z" />
    <glyph glyph-name="uniE923" unicode="&#xe923;" 
d="M751 32h-481l-108 189h504l92 161l-92 160h-230l-10 -18l14 -25h201l67 -117l-67 -117h-504l-108 188l241 420h481l107 -188h-504l-92 -161l92 -161h230l10 19l-14 25h-201l-67 117l67 117h504l108 -188l-240 -421v0zM284 58h452l225 395l-93 162h-474l-53 -91l53 -91
h201l29 -51l-25 -44h-260l-107 186l107 187h475l-78 137h-452l-225 -395l93 -163h475l52 92l-52 91h-202l-29 51l25 44h260l107 -186l-107 -187h-475l78 -137v0z" />
    <glyph glyph-name="uniE924" unicode="&#xe924;" 
d="M976 654l-197 197q-10 9 -22 14t-25 5t-25 -5t-22 -14l-46 -46q-5 -6 -9 -12t-6 -13l-217 39v0v0q-73 14 -135 -27t-77 -114l-10 -50q-8 -41 15 -76t64 -43t76 15t44 64l6 30l97 -8l299 -300q7 -7 7 -16.5t-7 -16.5t-16.5 -7t-16.5 7l-124 123q-6 6 -15 6t-16 -6
q-6 -7 -6 -16t6 -15l124 -123q3 -4 5 -8t2 -9t-2 -9.5t-5 -7.5q-7 -7 -17 -7t-17 7l-123 123q-7 6 -16 6t-15 -6q-7 -6 -7 -15.5t7 -15.5l123 -123q7 -7 7 -17t-7 -17q-4 -3 -8 -5t-9 -2t-9.5 2t-7.5 5l-123 123q-7 7 -16 7t-15 -7q-7 -6 -7 -15t7 -16l123 -123q7 -7 7 -17
t-7 -17t-17 -7t-17 7l-493 493q-6 7 -15 7t-16 -7q-6 -6 -6 -15t6 -16l120 -120l-34 -34q-9 -9 -13.5 -20t-4.5 -23t4.5 -22.5t13.5 -19.5l11 -11q7 -8 16.5 -12t19.5 -5q1 -11 5.5 -20t12.5 -17l11 -11q7 -8 16.5 -12t19.5 -5q1 -10 5.5 -19.5t11.5 -17.5l12 -11
q7 -7 16.5 -11.5t19.5 -5.5q1 -10 5.5 -19.5t11.5 -16.5l11 -12q9 -8 20 -12.5t23 -4.5q11 0 22 4.5t20 12.5l34 35l83 -83q10 -9 22 -14.5t26 -5.5t26 5.5t22 14.5q9 9 14 21t6 24q12 1 24 6t21 14t14 21t5 24q13 1 24.5 5.5t21.5 14.5q9 9 14 21t5 24q13 0 24.5 5t20.5 15
q20 19 20 47.5t-20 47.5l-30 31l189 189q19 19 19 46.5t-19 46.5v0v0zM151 336q-5 5 -5 11.5t5 11.5l32 32l34 -34l-32 -32q-5 -5 -11.5 -5t-11.5 5l-11 11v0zM216 271q-5 5 -5 11.5t5 11.5l32 32l34 -34l-33 -32q-4 -5 -10.5 -5t-11.5 5l-11 11v0zM280 207q-2 2 -3 5t-1 6
t1 6t3 5l33 32l33 -33l-32 -33q-5 -4 -11.5 -4t-10.5 4l-12 12v0zM379 130q-5 -4 -11.5 -4t-11.5 4l-11 12q-4 4 -4 11t4 11l33 33l33 -34l-32 -33v0zM756 403l-244 244q-2 2 -6 4t-7 2l-125 11h-0.5h-1.5q-8 0 -14 -5t-7 -13l-10 -49q-5 -23 -25 -36.5t-43 -8.5
q-11 2 -20.5 8.5t-15.5 15.5q-7 10 -9 21t0 22l10 50q11 55 58.5 86.5t102.5 20.5v0h1l213 -38l239 -239l-96 -96v0zM945 592l-62 -62l-213 212q-3 3 -4.5 7t-1.5 9q0 4 1.5 8t4.5 8l46 46q4 3 8 4.5t8 1.5q5 0 9 -1.5t7 -4.5l197 -197q3 -3 4.5 -7t1.5 -9q0 -4 -1.5 -8
t-4.5 -7v0v0zM913 599q0 -10 -6 -16t-16 -6q-9 0 -15.5 6t-6.5 16q0 9 6.5 15.5t15.5 6.5q10 0 16 -6.5t6 -15.5v0z" />
    <glyph glyph-name="uniE925" unicode="&#xe925;" 
d="M934 866q-31 32 -71 48t-81.5 16t-81.5 -16t-71 -48l-113 -113q-50 -51 -60.5 -120.5t20.5 -130.5l-17 -17q-60 31 -129.5 20.5t-119.5 -61.5l-113 -113q-30 -31 -46.5 -70.5t-16.5 -83.5q0 -43 16.5 -83t46.5 -70q31 -31 70.5 -47.5t82.5 -16.5t82.5 16.5t70.5 47.5
l112 113q51 51 61 120.5t-20 130.5l16 16q23 -11 47.5 -16.5t49.5 -5.5q41 0 81 15.5t72 47.5l112 114q31 30 47 70t16 83q0 44 -16 83.5t-47 70.5v0zM483 169l-112 -113q-24 -24 -55.5 -37t-65.5 -13t-65 13t-55 37q-25 24 -37.5 55.5t-12.5 65.5q0 35 12.5 66.5t37.5 55.5
l112 113q25 25 56.5 37.5t64.5 12.5q16 0 31.5 -3t30.5 -9l-36 -36q-7 1 -13.5 2t-12.5 1v0q-25 0 -48 -9.5t-41 -27.5l-112 -114q-18 -17 -27.5 -40t-9.5 -49q0 -25 9.5 -48t27.5 -41q17 -17 40 -26.5t48 -9.5t48 9.5t41 26.5l112 114q18 17 27.5 40t9.5 49q0 6 -1 12.5
t-2 13.5l36 36q18 -46 8.5 -96t-46.5 -88v0zM323 251q10 -10 22.5 -15.5t25.5 -5.5t25.5 5.5t22.5 15.5l21 20q-3 -10 -8 -19.5t-13 -17.5l-113 -113q-23 -24 -56 -24t-56 24q-11 11 -17 25.5t-6 30.5t6 31t17 26l112 113q8 8 17.5 13.5t19.5 7.5l-20 -20q-20 -20 -20 -48.5
t20 -48.5v0zM387 283q-7 -7 -16 -7t-16 7t-7 16.5t7 15.5l289 292q4 3 8 4.5t8 1.5q5 0 9 -1.5t8 -4.5q3 -4 4.5 -8t1.5 -8q0 -5 -1.5 -9t-4.5 -8l-290 -291v0zM709 639q-10 10 -22.5 15t-26.5 5q-13 0 -25.5 -5t-22.5 -15l-20 -21q2 11 7.5 20.5t13.5 17.5l112 113
q12 12 26.5 17.5t29.5 5.5q16 0 30.5 -5.5t26.5 -17.5q23 -23 23 -56.5t-23 -56.5l-113 -114q-8 -8 -17.5 -13t-19.5 -8l21 21q9 10 14.5 22.5t5.5 26.5q0 13 -5.5 25.5t-14.5 22.5v0zM902 591l-113 -113q-37 -38 -86.5 -47.5t-95.5 8.5l36 37q6 -2 12.5 -2.5t13.5 -0.5v0
q25 0 48 9.5t40 27.5l113 113q36 37 36 89.5t-36 88.5q-37 37 -88.5 37t-88.5 -37l-113 -113q-17 -18 -26.5 -41t-9.5 -48q0 -7 0.5 -13.5t2.5 -12.5l-37 -37q-18 47 -8.5 97t46.5 87l113 114q25 25 56.5 37.5t63.5 12.5q33 0 64.5 -12.5t56.5 -37.5q50 -50 50 -121.5
t-50 -121.5v0z" />
    <glyph glyph-name="uniE926" unicode="&#xe926;" 
d="M933 809h-381v43q0 17 -12.5 30t-29.5 13q-18 0 -30.5 -13t-12.5 -30v-43h-380q-18 0 -30.5 -12.5t-12.5 -30.5t12.5 -30.5t30.5 -12.5h14v-499q0 -17 12.5 -29.5t29.5 -12.5h324v-86h-98q-18 0 -30.5 -12.5t-12.5 -30.5q0 -17 12.5 -30t30.5 -13h282q17 0 29.5 13
t12.5 30q0 18 -12.5 30.5t-29.5 12.5h-99v86h324q18 0 30.5 12.5t12.5 29.5v499h14q17 0 29.5 12.5t12.5 30.5t-12.5 30.5t-29.5 12.5v0zM861 242h-702v508h702v-508z" />
    <glyph glyph-name="uniE927" unicode="&#xe927;" 
d="M947 511q-19 9 -22 13t-3 20q-1 16 2 20t23 16q33 19 43 34.5t-5 47.5q-5 12 -13.5 23t-26.5 11q-8 0 -18.5 -3t-27.5 -8q-8 -3 -14.5 -5t-10.5 -2q-2 0 -4.5 2t-11.5 10q-11 11 -12 17t5 30q9 35 5 52.5t-38 30.5q-6 2 -12.5 4t-13.5 2q-18 0 -28.5 -15t-21.5 -37
q-9 -19 -13 -22t-20 -3h-7q-10 0 -14 3t-15 23q-12 20 -22.5 33.5t-28.5 13.5q-7 0 -14.5 -3t-15.5 -6q-33 -15 -34.5 -33t9.5 -51q8 -22 7 -27.5t-12 -16.5q-8 -10 -11 -11.5t-5 -1.5q-5 0 -12 2t-17 4q-13 4 -23 5.5t-17 1.5q-21 0 -29.5 -12t-12.5 -25
q-12 -33 -1.5 -47.5t44.5 -30.5q19 -10 22.5 -14t3.5 -19q0 -16 -3 -21t-24 -17q-33 -19 -42.5 -33t5.5 -45q6 -14 14 -25.5t27 -11.5q8 0 18.5 3t25.5 8q8 3 15 5t11 2q3 0 6 -2t11 -9q11 -12 12 -17.5t-5 -28.5q-10 -36 -6 -53.5t37 -30.5q8 -2 14.5 -4t13.5 -2
q18 0 28 14t21 36q9 19 13.5 22.5t19.5 3.5h7q11 0 14.5 -3t15.5 -22q16 -28 32 -41t49 2q32 15 34 32.5t-11 54.5q-6 19 -5.5 24.5t11.5 16.5q9 10 11.5 11.5t5.5 1.5q4 0 11.5 -2t17.5 -4q13 -4 22.5 -5.5t17.5 -1.5q21 0 29.5 13t12.5 25q12 33 1 47t-45 31v0v0zM957 446
q-3 -8 -4.5 -11t-3.5 -4q-5 0 -13 1.5t-18 4.5q-13 3 -22 5t-16 2q-15 0 -25 -7.5t-18 -16.5q-19 -20 -21.5 -34t7.5 -44q3 -7 6.5 -19t3.5 -15q-1 -1 -6.5 -4t-7.5 -4t-7.5 -3t-7.5 -2q-3 1 -10 12.5t-10 16.5q-14 25 -25 34.5t-36 9.5h-7q-30 -1 -41 -10t-25 -37l-8.5 -17
t-7.5 -13v0q-2 0 -7 1.5t-8 2.5q-3 2 -8.5 4t-6.5 3q-1 3 2 15.5t4 18.5q8 31 6 45.5t-23 35.5q-8 8 -17.5 15t-23.5 7q-8 0 -16.5 -2.5t-21.5 -6.5q-10 -4 -19.5 -6.5t-13.5 -3.5q-2 2 -4.5 7t-3.5 9l-3.5 7t-2.5 6q2 3 12 9t17 10q28 17 36.5 28.5t7.5 41.5q0 29 -9 40
t-37 25l-17 8.5t-13 8.5q0 1 1 5t4 11q1 2 3 7t5 6q5 0 13.5 -1.5t17.5 -4.5q13 -3 21.5 -5t16.5 -2q15 0 24.5 7.5t17.5 16.5q21 21 22.5 35.5t-8.5 45.5q-3 8 -6.5 18.5t-3.5 12.5q2 1 7.5 4t7.5 4t7.5 3.5t7.5 2.5q3 -2 9.5 -12.5t9.5 -16.5q15 -25 26 -35t35 -10l7 1
q29 0 40.5 8t25.5 37l9 18t8 14q2 0 7 -2t7 -2q9 -4 12 -5.5t4 -2.5q1 -3 -1.5 -14.5t-4.5 -17.5q-8 -32 -6 -46.5t23 -35.5q16 -16 32 -20t45 6q11 4 20.5 7t14.5 4l3.5 -7l3.5 -7t3.5 -7.5t2.5 -7.5q-2 -4 -13 -11t-17 -10q-28 -16 -35.5 -28t-7.5 -39q1 -30 10 -41.5
t37 -24.5l17 -8.5t13 -8.5q0 -2 -2 -7.5t-3 -7.5v0v0zM300 392q-22 12 -47 5t-37 -28q-13 -22 -6 -46.5t29 -37.5q7 -4 14.5 -6t15.5 -2q17 0 31 8.5t23 22.5q12 22 5.5 46.5t-28.5 37.5v0v0zM291 326q-5 -9 -15.5 -11.5t-18.5 2.5q-9 5 -12 15t2 19q4 6 9.5 9.5t12.5 3.5
q3 0 6.5 -1t6.5 -3q9 -5 11.5 -15t-2.5 -19v0v0zM457 361q-27 9 -32.5 13.5t-13.5 23.5q-9 21 -8.5 29t12.5 35q19 42 17.5 60.5t-34.5 37.5q-11 6 -20 10t-18 4q-16 0 -27.5 -12t-26.5 -33q-19 -26 -25.5 -30.5t-26.5 -6.5q-4 -1 -7 -1h-6q-8 0 -14.5 3.5t-26.5 21.5
q-18 17 -31.5 27t-27.5 10q-12 0 -21.5 -6t-18.5 -15q-28 -25 -26.5 -44t27.5 -55q18 -25 20 -33t-3 -28q-3 -16 -8.5 -22.5t-33.5 -21.5q-38 -21 -48.5 -37t5.5 -54q5 -13 14 -25.5t31 -12.5q9 0 21 3t30 9q24 7 30.5 8t32.5 -14q16 -9 20 -16t11 -39q5 -29 14 -48t38 -19
q4 0 8.5 0.5t10.5 1.5q40 4 48 21.5t8 59.5q0 30 2 37t16 18q13 11 18 14t13 3q5 0 11.5 -1t15.5 -2q12 -1 21.5 -2t16.5 -1q29 0 38.5 14.5t14.5 36.5q9 36 -6 50t-55 28v0v0zM483 291q-4 -17 -6.5 -20t-11.5 -3q-7 0 -15 1t-18 2q-11 1 -18.5 2t-13.5 1q-18 0 -29 -6.5
t-26 -18.5q-21 -18 -25.5 -32.5t-4.5 -50.5q0 -10 -0.5 -24t-2.5 -18q-2 -1 -9.5 -2t-11.5 -1q-9 -1 -15 -1h-6q-3 3 -6 16.5t-5 21.5q-8 37 -16 51t-32 28q-23 13 -42 15.5t-49 -7.5q-15 -4 -26 -7.5t-18 -2.5q-1 1 -3.5 5t-5.5 12q-8 17 -4.5 23t31.5 21q31 17 43 29
t18 39q6 29 2 44.5t-26 45.5q-18 26 -19 32.5t13 18.5q8 7 11.5 9.5t4.5 2.5q4 0 16 -10.5t19 -17.5q19 -17 32 -25.5t33 -8.5h7.5t9.5 1q30 3 43 12.5t34 39.5q4 5 13 16.5t12 12.5q3 0 9.5 -3.5t10.5 -5.5t10 -5.5t7 -5.5q1 -4 -5 -18t-10 -22q-15 -35 -16 -49.5t11 -43.5
q12 -28 24 -37.5t45 -20.5q31 -10 35.5 -14.5t1.5 -20.5v0v0z" />
    <glyph glyph-name="uniE928" unicode="&#xe928;" 
d="M910 636l-222 231q-2 2 -5.5 3.5t-6.5 1.5h-331q-28 0 -48 -19.5t-20 -47.5v-235h-134q-21 0 -35.5 -14.5t-14.5 -35.5v-252q0 -21 14.5 -35.5t35.5 -14.5h134v-151q0 -28 20 -47.5t48 -19.5h503q28 0 47.5 19.5t19.5 47.5v557q0 4 -1 7t-4 5v0v0zM680 827l183 -190h-183
v190zM143 251q-7 0 -12 5t-5 12v252q0 7 5 12t12 5h453q7 0 12 -5t5 -12v-252q0 -7 -5 -12t-12 -5h-453zM882 67q0 -14 -10 -24t-24 -10h-503q-14 0 -24 10t-10 24v151h285q21 0 36 14.5t15 35.5v252q0 21 -15 35.5t-36 14.5h-285v235q0 14 10 24t24 10h302v-219
q0 -7 4.5 -11.5t11.5 -4.5h219v-537v0zM294 446q-5 6 -10 9.5t-11 4.5q-4 1 -13 2t-22 1h-47v-145h30v55h19q9 0 17 0.5t13 1.5q4 1 7.5 2.5t7.5 4.5q4 2 7 5.5t5 8.5q2 4 3.5 10t1.5 12q0 9 -2 16t-6 12v0v0zM269 407q-2 -3 -4.5 -4.5t-5.5 -3.5q-2 -1 -8 -1.5t-15 -0.5
h-15v41h14h12.5t8.5 -1t6 -2.5t5 -3.5q3 -3 4 -6t1 -7q0 -3 -1 -6t-2 -5v0v0zM442 423q-3 7 -6 13t-8 10q-5 5 -10 8.5t-12 5.5q-4 1 -11 2t-16 1h-53v-145h54q8 0 14.5 1t11.5 2q7 2 12 5t9 7q5 5 8.5 11.5t6.5 13.5q2 7 3 14.5t1 16.5q0 10 -1 18.5t-3 15.5v0v0zM413 364
q-1 -5 -3 -8.5t-4 -5.5t-5 -3.5t-7 -2.5q-3 -1 -7 -1h-10h-22v95h13q9 0 15 -0.5t9 -0.5q4 -1 7.5 -3t5.5 -4q3 -3 5 -6.5t3 -7.5q2 -4 2.5 -10.5t0.5 -15.5q0 -8 -0.5 -14.5t-2.5 -11.5v0v0zM570 438v25h-99v-145h29v62h61v24h-61v34h70v0z" />
    <glyph glyph-name="uniE929" unicode="&#xe929;" 
d="M244 357q-11 0 -19 -8t-8 -19v-47q0 -11 8 -19t19 -8t19 8t8 19v47q0 11 -8 19t-19 8v0zM353 357q-12 0 -20 -8t-8 -19v-47q0 -11 8 -19t20 -8q11 0 19 8t8 19v47q0 11 -8 19t-19 8v0zM461 357q-11 0 -19 -8t-8 -19v-47q0 -11 8 -19t19 -8t19 8t8 19v47q0 11 -8 19t-19 8
v0zM559 357q-12 0 -20 -8t-8 -19v-47q0 -11 8 -19t20 -8q11 0 19 8t8 19v47q0 11 -8 19t-19 8v0zM667 357q-11 0 -19 -8t-8 -19v-47q0 -11 8 -19t19 -8t19 8t8 19v47q0 11 -8 19t-19 8v0zM775 357q-11 0 -19 -8t-8 -19v-47q0 -11 8 -19t19 -8q12 0 19.5 8t7.5 19v47
q0 11 -7.5 19t-19.5 8v0zM244 508q-11 0 -19 -8t-8 -19v-47q0 -11 8 -19t19 -8t19 8t8 19v47q0 11 -8 19t-19 8v0zM353 508q-12 0 -20 -8t-8 -19v-47q0 -11 8 -19t20 -8q11 0 19 8t8 19v47q0 11 -8 19t-19 8v0zM461 508q-11 0 -19 -8t-8 -19v-47q0 -11 8 -19t19 -8t19 8
t8 19v47q0 11 -8 19t-19 8v0zM559 508q-12 0 -20 -8t-8 -19v-47q0 -11 8 -19t20 -8q11 0 19 8t8 19v47q0 11 -8 19t-19 8v0zM667 508q-11 0 -19 -8t-8 -19v-47q0 -11 8 -19t19 -8t19 8t8 19v47q0 11 -8 19t-19 8v0zM775 508q-11 0 -19 -8t-8 -19v-47q0 -11 8 -19t19 -8
q12 0 19.5 8t7.5 19v47q0 11 -7.5 19t-19.5 8v0zM401 785q-11 0 -19 -8t-8 -19v-47q0 -11 8 -19t19 -8q12 0 19.5 8t7.5 19v47q0 11 -7.5 19t-19.5 8v0zM510 785q-11 0 -19 -8t-8 -19v-47q0 -11 8 -19t19 -8t19 8t8 19v47q0 11 -8 19t-19 8v0zM618 785q-11 0 -19 -8t-8 -19
v-47q0 -11 8 -19t19 -8t19 8t8 19v47q0 11 -8 19t-19 8v0zM957 640h-200v233q0 11 -8 19t-19 8h-440q-11 0 -19 -8t-8 -19v-233h-201q-11 0 -19 -8t-8 -19t8 -19t19 -8h26v-553q0 -12 7.5 -19.5t19.5 -7.5h790q11 0 19 7.5t8 19.5v553h25q12 0 19.5 8t7.5 19t-7.5 19
t-19.5 8v0v0zM643 60h-106v1.5v1.5v41h106v-44zM483 60h-107v44h107v-41v-1.5v-1.5v0v0zM697 60v71q0 11 -7.5 19t-19.5 8h-321q-11 0 -19 -8t-8 -19v-71h-180v526h736v-526h-181v0zM317 846h386v-206h-386v206v0z" />
    <glyph glyph-name="uniE92A" unicode="&#xe92a;" 
d="M894 918h-647q-37 0 -63 -26t-26 -63v-59h-29q-37 0 -63 -25.5t-26 -62.5v-589q0 -49 34.5 -83.5t83.5 -34.5h707q49 0 83.5 34.5t34.5 83.5v736q0 37 -26 63t-63 26v0v0zM924 93q0 -24 -17.5 -41.5t-41.5 -17.5h-707q-24 0 -41.5 17.5t-17.5 41.5v589q0 12 8.5 20.5
t21.5 8.5h29v-588q0 -13 8.5 -21.5t21.5 -8.5q12 0 20.5 8.5t8.5 21.5v706q0 13 8.5 21.5t21.5 8.5h647q12 0 21 -8.5t9 -21.5v-736v0zM614 535h236q6 0 10.5 4t4.5 10q0 7 -4.5 11t-10.5 4h-236q-6 0 -10 -4t-4 -11q0 -6 4 -10t10 -4v0zM614 623h236q6 0 10.5 4.5t4.5 10.5
t-4.5 10.5t-10.5 4.5h-236q-6 0 -10 -4.5t-4 -10.5t4 -10.5t10 -4.5v0zM614 711h236q6 0 10.5 4.5t4.5 10.5t-4.5 10.5t-10.5 4.5h-236q-6 0 -10 -4.5t-4 -10.5t4 -10.5t10 -4.5v0zM526 123h-235q-6 0 -10.5 -4.5t-4.5 -10.5t4.5 -10.5t10.5 -4.5h235q6 0 10.5 4.5t4.5 10.5
t-4.5 10.5t-10.5 4.5v0zM526 211h-235q-6 0 -10.5 -4.5t-4.5 -10.5t4.5 -10.5t10.5 -4.5h235q6 0 10.5 4.5t4.5 10.5t-4.5 10.5t-10.5 4.5v0zM526 299h-235q-6 0 -10.5 -4t-4.5 -10q0 -7 4.5 -11t10.5 -4h235q6 0 10.5 4t4.5 11q0 6 -4.5 10t-10.5 4v0zM850 123h-235
q-7 0 -11 -4.5t-4 -10.5t4 -10.5t11 -4.5h235q6 0 10.5 4.5t4.5 10.5t-4.5 10.5t-10.5 4.5v0zM850 211h-235q-7 0 -11 -4.5t-4 -10.5t4 -10.5t11 -4.5h235q6 0 10.5 4.5t4.5 10.5t-4.5 10.5t-10.5 4.5v0zM850 299h-235q-7 0 -11 -4t-4 -10q0 -7 4 -11t11 -4h235q6 0 10.5 4
t4.5 11q0 6 -4.5 10t-10.5 4v0zM850 476h-559q-6 0 -10.5 -4.5t-4.5 -10.5t4.5 -10.5t10.5 -4.5h559q6 0 10.5 4.5t4.5 10.5t-4.5 10.5t-10.5 4.5v0v0zM850 388h-559q-6 0 -10.5 -4.5t-4.5 -10.5t4.5 -10.5t10.5 -4.5h559q6 0 10.5 4.5t4.5 10.5t-4.5 10.5t-10.5 4.5v0z
M305 535h206q13 0 21.5 8.5t8.5 20.5v206q0 13 -8.5 21.5t-21.5 8.5h-206q-12 0 -20.5 -8.5t-8.5 -21.5v-206q0 -12 8.5 -20.5t20.5 -8.5v0v0zM335 741h147v-147h-147v147v0z" />
    <glyph glyph-name="uniE92B" unicode="&#xe92b;" 
d="M124 93q2 0 3.5 0.5t2.5 0.5q39 17 103.5 25.5t153.5 9.5l11 -23q3 -6 9.5 -8.5t12.5 0.5t8 9.5t-1 12.5l-16 32q-2 4 -6 6.5t-8 2.5q-98 0 -167 -9.5t-112 -27.5q-7 -3 -9 -9t0 -12q2 -5 6 -7.5t9 -2.5v0v0zM957 65h-32v80q0 3 -1 6t-3 5l-97 96q3 5 4 10t1 11
q0 20 -14 34t-34 14t-34 -14t-14 -34t14 -34t34 -14q6 0 11 1t10 4l91 -92v-73h-833q-13 0 -22.5 -9.5t-9.5 -22.5v-48q0 -7 5 -11.5t11 -4.5q7 0 11.5 4.5t4.5 11.5v48h897v-48q0 -7 5 -11.5t11 -4.5q7 0 11.5 4.5t4.5 11.5v48q0 13 -9 22.5t-23 9.5v0v0zM781 257
q-6 0 -11 4.5t-5 11.5t5 11.5t11 4.5q7 0 11.5 -4.5t4.5 -11.5t-4.5 -11.5t-11.5 -4.5v0zM257 451q9 -23 33 -81t45 -90l3 -4q15 -23 49.5 -53t121.5 -30t121 30t50 53l2 4q21 32 45.5 90t33.5 81q15 3 25.5 16t10.5 30v64q0 16 -9 28.5t-23 17.5v82q0 48 -32 115.5
t-124 76.5q0 5 -2 9.5t-4 8.5q-12 19 -40 25t-54 6q-107 0 -165.5 -42.5t-85.5 -93t-32 -93.5t-5 -44q0 -6 4.5 -11t11.5 -5v0q6 0 11 5t5 11q0 4 4.5 42t28.5 82t76 80.5t147 36.5q34 0 49 -6t18 -10q0 -1 0.5 -3t-1.5 -6t-2 -8t2 -8q3 -3 6.5 -5t7.5 -2q107 0 125.5 -78
t18.5 -83v-96q0 -6 5 -11t11 -5q7 0 11.5 -4.5t4.5 -11.5v-64q0 -6 -4.5 -11t-11.5 -5q-5 0 -9 -3t-6 -7q0 -1 -27.5 -70t-50.5 -103l-3 -4q-14 -22 -42 -45.5t-102 -23.5t-102 23.5t-42 45.5l-3 4q-23 34 -50.5 103t-27.5 70q-2 4 -6 7t-9 3q-7 0 -11.5 5t-4.5 11v64
q0 3 1 6t3 5q5 -9 14 -17t24 -9l55 -41q3 -24 21 -40t42 -16h32q26 0 45 19t19 45q0 -26 18.5 -45t45.5 -19h32q24 0 42 16t21 40l59 43q5 4 6 11t-3 12t-10.5 6t-11.5 -3l-41 -31q-5 15 -17.5 24.5t-28.5 9.5h-64q-20 0 -34 -14t-14 -34q0 20 -14 34t-34 14h-64
q-16 0 -28.5 -9.5t-17.5 -24.5l-30 23q9 23 16.5 53.5t10.5 53.5q19 1 53 2.5t72 6.5t75 14.5t61 24.5q11 -43 37 -74t28 -33q4 -5 11 -5t11 5q5 5 5 11.5t-5 11.5l-29.5 37t-29.5 79q0 6 -3 10t-9 6q-5 1 -10 -1t-8 -6q-8 -15 -38 -25.5t-70 -17.5t-84.5 -10.5t-81.5 -3.5
q-7 0 -11.5 -4.5t-4.5 -11.5q0 -19 -8 -52.5t-18 -57.5q-3 3 -4.5 7t-1.5 7q0 7 -5 11.5t-11 4.5q-20 0 -34 -14t-14 -34v-64q0 -17 10 -30t26 -16v0v0zM541 529q0 7 4.5 11.5t11.5 4.5h64q7 0 11.5 -4.5t4.5 -11.5v-16q0 -13 -9.5 -22.5t-22.5 -9.5h-32q-13 0 -22.5 9.5
t-9.5 22.5v16v0zM381 529q0 7 4.5 11.5t11.5 4.5h64q6 0 11 -4.5t5 -11.5v-16q0 -13 -9.5 -22.5t-22.5 -9.5h-32q-13 0 -22.5 9.5t-9.5 22.5v16v0zM589 353q0 7 -4.5 11.5t-11.5 4.5l-18 2t-39 12q-3 2 -7 2t-7 -2q-21 -10 -39 -12l-18 -2q-7 0 -11.5 -4.5t-4.5 -11.5
t4.5 -11.5t11.5 -4.5q1 0 20.5 2t43.5 12q24 -10 43.5 -12t20.5 -2q7 0 11.5 4.5t4.5 11.5v0v0zM621 160q-4 0 -8 -2.5t-6 -6.5l-16 -31q-3 -6 -1 -12.5t8 -9.5q1 0 3 -0.5t4 -0.5q4 0 8 2t6 6l12 23q66 0 118.5 -5t91.5 -14q6 -2 11.5 1.5t7.5 9.5q2 7 -1.5 12.5t-10.5 7.5
q-42 10 -99 15.5t-128 4.5v0v0zM493 145v-32q0 -7 4.5 -11.5t11.5 -4.5t11.5 4.5t4.5 11.5v32q0 6 -4.5 11t-11.5 5t-11.5 -5t-4.5 -11v0zM493 321q-7 0 -11.5 -4.5t-4.5 -11.5t4.5 -11.5t11.5 -4.5h32q7 0 11.5 4.5t4.5 11.5t-4.5 11.5t-11.5 4.5h-32z" />
    <glyph glyph-name="uniE92C" unicode="&#xe92c;" 
d="M982 492l-72 72q-7 7 -15.5 10.5t-18.5 3.5q-8 0 -15 -3t-13 -9l-57 -57l-231 -230q-3 -2 -4.5 -5.5t-2.5 -6.5l-38 -136q-2 -7 -1 -13t7 -12q4 -4 8.5 -5.5t9.5 -1.5q1 0 3.5 0.5t4.5 0.5l135 39q3 1 6.5 2.5t4.5 4.5l232 230l56 57q6 6 9.5 13t3.5 15q0 9 -3 17t-9 14
v0v0zM661 187l-85 -25l25 85l207 207l62 -60l-209 -207v0zM906 431l-61 60l32 32l61 -60zM450 306q4 -4 8.5 -6t9.5 -2h1q6 0 11 2t8 6l361 369v-61h51v139q0 24 -16 41t-40 17h-751q-12 0 -22 -4t-18 -13q-8 -8 -12 -18.5t-4 -22.5v-598q0 -11 4 -21.5t12 -18.5t18 -12
t22 -4h393v52h-393q-2 0 -3 1t-1 3v520l361 -369v0zM89 753q0 3 1 4.5t3 1.5h751q2 0 3.5 -1.5t1.5 -4.5v-4l-380 -389l-380 389v4v0z" />
    <glyph glyph-name="uniE92D" unicode="&#xe92d;" 
d="M971 322v423q0 44 -31 75.5t-75 31.5h-717q-43 0 -74.5 -31.5t-31.5 -75.5v-423q0 -44 31.5 -75t74.5 -31h31v-128q0 -17 12.5 -29.5t30.5 -12.5q9 0 17.5 3.5t14.5 10.5l134 156h477q44 0 75 31t31 75v0zM375 273q-6 0 -12 -2.5t-10 -7.5l-117 -134v116q0 12 -8.5 20.5
t-20.5 8.5h-59q-20 0 -34 14t-14 34v423q0 20 14 34.5t34 14.5h717q20 0 34.5 -14.5t14.5 -34.5v-423q0 -20 -14.5 -34.5t-34.5 -14.5h-490v0zM541 524q0 -15 -10 -25t-24 -10q-15 0 -25 10t-10 25q0 14 10 24t25 10q14 0 24 -10t10 -24v0zM656 524q0 -15 -10 -25t-24 -10
t-24.5 10t-10.5 25q0 14 10.5 24t24.5 10t24 -10t10 -24v0zM426 524q0 -15 -10 -25t-24 -10q-15 0 -25 10t-10 25q0 14 10 24t25 10q14 0 24 -10t10 -24v0z" />
    <glyph glyph-name="uniE92E" unicode="&#xe92e;" 
d="M607 227q-12 -13 -27.5 -21t-33.5 -9q-17 -1 -33.5 5t-29.5 18l-196 180q-13 12 -20 27t-8 32t4.5 33.5t17.5 28.5l19 21q23 26 57.5 28t61.5 -21l107 -92l297 330q-30 28 -66 51t-75.5 39t-83 24.5t-88.5 8.5q-95 0 -178.5 -36t-146 -98.5t-98.5 -146t-36 -179.5
q0 -95 36 -178.5t98.5 -146t146 -98.5t178.5 -36t179 36t146 98.5t98.5 146t36.5 178.5q0 44 -8 85t-22 79l-333 -387v0z" />
    <glyph glyph-name="uniE92F" unicode="&#xe92f;" 
d="M598 898q-44 32 -92 25t-50 -8q-8 -2 -12.5 -8.5t-4.5 -14.5v-170q0 -50 -24.5 -84.5t-54 -56t-55.5 -31t-28 -10.5q-1 0 -2.5 -0.5t-2.5 -1.5q-9 18 -26 28.5t-37 10.5h-114q-29 0 -49.5 -20.5t-20.5 -49.5v-413q0 -29 20.5 -49.5t49.5 -20.5h66q10 0 17 7t7 17t-7 17.5
t-17 7.5h-66q-9 0 -15 6t-6 15v413q0 9 6 15.5t15 6.5h114q9 0 15 -6.5t6 -15.5v-390q0 -56 40 -95.5t96 -39.5h416q69 0 111 34.5t50 97.5l56 351v2v2v4q0 56 -39.5 96t-96.5 40h-209v152q0 47 -14 81.5t-42 55.5v0v0zM290 494q3 1 34 12.5t67.5 38t66 70t29.5 107.5v150
q16 3 39.5 2t42.5 -16q18 -13 27 -37.5t9 -59.5v-176q0 -10 7 -17.5t17 -7.5h234q37 0 62.5 -25.5t25.5 -61.5v-2l-56 -350q-6 -45 -34.5 -68t-78.5 -23h-416q-36 0 -61.5 25.5t-25.5 61.5v376h5t6 1v0v0z" />
    <glyph glyph-name="uniE930" unicode="&#xe930;" 
d="M874 753l-22 19q-27 23 -62.5 21t-59.5 -29l-362 -401l-109 94q-27 23 -62.5 21t-58.5 -29l-20 -21q-11 -13 -17 -29t-5 -34q1 -17 8.5 -32.5t20.5 -27.5l200 -183q13 -13 29.5 -19t34.5 -5t34 9t28 21l432 502q11 13 16.5 29.5t4.5 34.5q-2 17 -9.5 32.5t-20.5 26.5v0v0
z" />
    <glyph glyph-name="uniE931" unicode="&#xe931;" 
d="M558 206q-35 -8 -54 -38.5t-11 -65.5q8 -36 38.5 -55t65.5 -11q36 8 55 39t11 66t-39 54t-66 11v0zM545 265q31 8 47.5 35t9.5 58l-103 449q-7 31 -34 48t-58 10t-48 -34t-10 -58l103 -450q8 -31 35 -48t58 -10v0z" />
    <glyph glyph-name="uniE932" unicode="&#xe932;" 
d="M847 504q-10 -1 -17 -9t-6 -18q0 -7 0.5 -13.5t0.5 -12.5q0 -76 -29 -142t-78.5 -115.5t-115.5 -78.5t-142 -29q-75 0 -141.5 29t-116 78.5t-78 115.5t-28.5 142q0 75 28.5 141.5t78 116t116 78t141.5 28.5q60 0 115.5 -18.5t103.5 -54.5q8 -6 18.5 -4.5t16.5 9.5
t4.5 18.5t-9.5 16.5q-54 41 -117.5 62t-131.5 21q-85 0 -160.5 -32.5t-132 -89t-89 -132t-32.5 -160.5q0 -86 32.5 -161.5t89 -132t132 -89t160.5 -32.5q86 0 161.5 32.5t132 89t89 132t32.5 161.5q0 7 -0.5 14.5t-0.5 14.5q-1 11 -9 17.5t-18 6.5v0zM960 808
q-29 29 -69.5 29t-69.5 -29l-363 -363l-129 129q-29 29 -69.5 29t-69.5 -29t-29 -69.5t29 -69.5l222 -222q9 -9 21 -14t25 -5q12 0 24 5t22 14l456 456q29 29 29 70t-29 69v0zM924 705l-456 -456q-4 -4 -10 -4t-11 4l-221 222q-14 14 -14 33.5t14 33.5q7 7 15.5 10.5
t18.5 3.5q9 0 18 -3.5t16 -10.5l132 -132q6 -6 14.5 -9.5t17.5 -3.5t17 3.5t15 9.5l367 367q14 14 33.5 14t33.5 -14t14 -34t-14 -34v0z" />
    <glyph glyph-name="uniE933" unicode="&#xe933;" 
d="M864 705v1v1h-0.5h-0.5v1.5v0.5v0v0v1.5t-1 0.5v0v0v1v1h-0.5h-0.5v0.5v0.5l-0.5 0.5l-0.5 0.5v0.5v0.5h-1v0q0 1 -0.5 1h-0.5v1v0l-199 198v0v1h-0.5t-0.5 1v0h-1v0.5t-1 0.5v0v0l-0.5 0.5l-0.5 0.5h-1v0l-0.5 0.5l-0.5 0.5v0v0h-1.5h-0.5v0v0q-1 1 -1.5 1h-0.5h-0.5
h-0.5h-0.5h-0.5h-1.5h-0.5h-436q-23 0 -39 -16t-16 -38v-842q0 -23 16 -39t39 -16h600q23 0 39 16t16 39v677v1.5v0.5v0v0zM665 851l128 -127h-114q-6 0 -10 4t-4 9v114v0zM822 26q0 -6 -3.5 -10t-9.5 -4h-600q-6 0 -10 4t-4 10v842q0 5 4 9t10 4h415v-144q0 -22 16 -38.5
t39 -16.5h143v-656v0zM748 568h-202q-9 0 -15 -6t-6 -15t6 -15t15 -6h202q9 0 15 6t6 15t-6 15t-15 6v0zM631 467h-85q-9 0 -15 -6t-6 -15t6 -15t15 -6h85q8 0 14 6t6 15t-6 15t-14 6v0v0zM430 538q-6 6 -15 6t-15 -6l-38 -39l-21 21q-6 6 -14.5 6t-15.5 -6q-6 -6 -6 -14.5
t6 -14.5l36 -36q3 -3 6.5 -4.5t8.5 -1.5v0q4 0 7.5 1.5t6.5 4.5l54 53q6 7 6 15.5t-6 14.5v0v0zM472 618h-203q-8 0 -14 -6t-6 -15v-202q0 -8 6 -14t14 -6h203q8 0 14 6t6 14v202q0 9 -6 15t-14 6v0zM451 416h-161v161h161v-161v0zM748 259h-202q-9 0 -15 -6t-6 -15t6 -15
t15 -6h202q9 0 15 6t6 15t-6 15t-15 6v0zM631 158h-85q-9 0 -15 -6.5t-6 -14.5q0 -9 6 -15t15 -6h85q8 0 14 6t6 15q0 8 -6 14.5t-14 6.5v0zM472 309h-203q-8 0 -14 -6t-6 -15v-202q0 -8 6 -14t14 -6h203q8 0 14 6t6 14v202q0 9 -6 15t-14 6v0zM451 107h-161v161h161v-161v0
z" />
    <glyph glyph-name="uniE934" unicode="&#xe934;" 
d="M980 247v286q0 25 -18 43.5t-44 18.5h-389v7q0 8 -2.5 14.5t-6.5 11.5q3 4 5.5 8.5t3.5 9.5q11 7 18 19t7 26q0 7 -1.5 13.5t-4.5 12.5q3 5 4.5 11.5t1.5 13.5q0 14 -6.5 26t-18.5 19v3v3q0 20 -13 35t-32 17q-7 12 -19 19t-26 7h-4t-3 -1q-8 7 -17.5 10.5t-19.5 3.5h-3
t-3 -1q-8 7 -18 10t-20 3q-11 0 -21 -3t-18 -10q-1 1 -2.5 1h-3.5q-10 0 -19 -3.5t-17 -9.5q-13 -1 -23.5 -8t-16.5 -18q-19 -2 -32 -17t-13 -35v-3v-3q-12 -7 -19 -19t-7 -26q0 -7 2 -13.5t5 -11.5q-3 -6 -5 -12.5t-2 -13.5q0 -14 7 -26t19 -19q1 -3 2 -5.5t2 -5.5
q-8 -5 -12.5 -14t-4.5 -19v-25q0 -17 11.5 -28.5t28.5 -11.5h7l1 -7q1 -12 7 -22t15 -18l6 -5v-42q0 -3 -2 -6t-6 -4l-110 -34q-21 -6 -33.5 -23.5t-12.5 -39.5v-184q0 -14 4.5 -26.5t12.5 -22.5h-34q-13 0 -22 -9t-9 -22v-31q0 -13 9 -22t22 -9h882q13 0 22 9t9 22v31
q0 13 -9 22t-22 9h-160l-11 82h140q26 0 44 18t18 44v0zM212 566q-4 0 -7 3.5t-3 7.5v25q0 3 1 5.5t4 3.5l7 -45h-2v0zM214 653v0.5v0.5q1 5 -2 9.5t-8 5.5q-7 3 -11 9t-4 13q0 6 2 9.5t4 6.5q4 4 4 9.5t-4 10.5q-2 2 -4 6t-2 9q0 8 4.5 14t12.5 8q3 1 5.5 3t3.5 5q2 3 2 6
t-1 6q-1 2 -1.5 4.5t-0.5 4.5q0 9 6.5 16t16.5 7h0.5h1.5q4 -1 8.5 2t5.5 8q3 7 8.5 11t12.5 4h1v0q3 0 6 1t5 4q4 4 9.5 6t10.5 2h3.5t3.5 -1q4 -1 7.5 0t5.5 4q5 5 11.5 7.5t13.5 2.5q6 0 12.5 -2.5t11.5 -7.5q3 -3 6.5 -4t6.5 0q2 1 3.5 1h3.5q6 0 11.5 -2.5t9.5 -7.5
q3 -3 7.5 -4t8.5 0q2 1 3.5 1h3.5q7 0 13 -4t8 -11q2 -5 6 -8t9 -2h1.5h0.5q10 0 16.5 -7t6.5 -16q0 -2 -0.5 -4.5t-1.5 -4.5q-1 -3 -1 -6t1 -6q2 -3 4.5 -5t5.5 -3q7 -2 12 -8t5 -14q0 -5 -2 -9t-4 -6q-4 -5 -4 -10.5t4 -9.5q2 -3 4 -6.5t2 -9.5q0 -7 -4.5 -13t-11.5 -9
q-4 -1 -7 -5.5t-2 -9.5v-0.5v-0.5q0 -4 -2.5 -6.5t-5.5 -3.5h-7.5h-7.5l-8 51q-1 6 -5.5 9.5t-10.5 2.5h-0.5h-1.5v0q-6 0 -11 3t-8 7q-2 4 -5 5.5t-7 1.5t-7 -1.5t-5 -5.5q-4 -4 -9 -7t-11 -3q-5 0 -10.5 3t-8.5 7q-2 4 -5 5.5t-7 1.5t-7 -1.5t-5 -5.5q-4 -4 -9 -7t-11 -3
q-5 0 -10.5 3t-8.5 7q-2 4 -5 5.5t-7 1.5t-7 -1.5t-5 -5.5q-4 -4 -9 -7t-10 -3v0h-1.5h-0.5q-6 1 -10.5 -2.5t-5.5 -9.5l-9 -51h-7h-7q-3 1 -5.5 3.5t-2.5 6.5v0zM500 602v-7h-8l3 16q2 -1 3.5 -3.5t1.5 -5.5v0zM236 613h2q10 0 18 6.5t9 16.5l7 41q6 1 11.5 3.5t10.5 6.5
q7 -5 15 -8t16 -3q9 0 17 3t15 8q7 -5 15 -8t16 -3q9 0 17 3t15 8q5 -4 10.5 -6.5t11.5 -3.5l6 -41q2 -7 6.5 -13t10.5 -8l-3 -20h-17q-26 0 -44 -18.5t-18 -43.5v-66q-2 -1 -4 -1.5t-4 -0.5h-49q-4 0 -7.5 1.5t-6.5 3.5l-51 43q-5 4 -8 9.5t-4 12.5l-13 78v0zM249 405
q13 4 20.5 14.5t7.5 23.5v18l16 -14q7 -5 15.5 -8.5t17.5 -3.5h49q2 0 4 0.5t4 0.5v-96q-6 -1 -13 -1.5t-13 -0.5q-37 0 -70.5 16t-56.5 45l19 6v0zM113 336q0 12 7 21.5t18 13.5l62 19q27 -38 68.5 -60t88.5 -22q6 0 13 0.5t13 1.5v-63q0 -26 18 -44t44 -18h64v-81v-0.5
v-0.5h-81v17q0 26 -18 44.5t-44 18.5h-157h-1v1v95q0 6 -4.5 10.5t-10.5 4.5t-10.5 -4.5t-4.5 -10.5v-95q0 -13 9 -22t22 -9h95v-50h-142q-20 0 -34.5 14.5t-14.5 34.5v184v0zM399 120v-17h-65v50h32q14 0 23.5 -9.5t9.5 -23.5v0zM949 73h1v-1v-31v-1h-1h-882h-0.5t-0.5 1
v31q0 1 0.5 1h0.5h882zM539 103v0.5v0.5v81h46l-11 -82h-35v0zM604 103l25 194q1 6 6 10t11 4h71q6 0 11 -4t6 -10l25 -194h-155v0zM776 214h-0.5h-1.5l-11 87q-2 17 -15.5 28.5t-30.5 11.5h-71q-17 0 -30.5 -11.5t-15.5 -28.5l-11 -87h-1.5h-0.5h-142q-13 0 -22.5 9.5
t-9.5 23.5v286q0 13 9.5 22.5t22.5 9.5h473q13 0 22.5 -9.5t9.5 -22.5v-286q0 -14 -9.5 -23.5t-22.5 -9.5h-142z" />
    <glyph glyph-name="uniE935" unicode="&#xe935;" 
d="M919 755h-817q-25 0 -42.5 -17.5t-17.5 -41.5v-490q0 -25 17.5 -42.5t42.5 -17.5h817q25 0 42.5 17.5t17.5 42.5v490q0 24 -17.5 41.5t-42.5 17.5v0zM950 200q0 -8 -6 -14t-15 -6h-833q-8 0 -14 6t-6 14v501q0 9 6 15t14 6h833q9 0 15 -6t6 -15v-501zM815 581h-214
q-8 0 -14 -5.5t-6 -14.5q0 -8 6 -14t14 -6h214q8 0 13.5 6t5.5 14q0 9 -5.5 14.5t-13.5 5.5zM815 471h-214q-8 0 -14 -6t-6 -14q0 -9 6 -14.5t14 -5.5h214q8 0 13.5 5.5t5.5 14.5q0 8 -5.5 14t-13.5 6v0zM815 360h-214q-8 0 -14 -6t-6 -14t6 -14t14 -6h214q8 0 13.5 6
t5.5 14t-5.5 14t-13.5 6zM410 388q-1 0 -20.5 4.5t-26.5 33.5q10 8 18 18.5t14 23.5h1.5h0.5q4 0 8 2t6 5q13 16 19 36t6 42q-2 45 -29.5 76.5t-66.5 31.5q-1 1 -2 0.5t-2 -0.5v0v0q-9 5 -19 6.5t-20 1.5q-22 -1 -41.5 -11.5t-34.5 -29.5q-13 -18 -20.5 -40.5t-6.5 -47.5
q0 -4 0.5 -8t1.5 -8q1 -10 4 -20t7 -20q2 -4 6 -7t9 -3h3h3q6 -15 15 -27t20 -21q-7 -29 -27 -33.5l-20 -4.5q-29 -1 -49.5 -22t-20.5 -51v-72q0 -7 5 -12.5t12 -5.5h299q8 0 13 5.5t5 12.5v72q0 30 -20.5 51t-49.5 22v0zM220 520q0 1 5.5 5l5.5 4q0 3 -6 3t-6 4
q-1 22 5 42.5t18 35.5q11 15 25.5 23.5t30.5 8.5l10 -0.5t21 -6.5q2 -1 4.5 -1.5t5.5 -0.5l0.5 0.5t1.5 0.5q24 -1 49 -27t26 -62v-8v-8q-11 18 -26 31.5t-33 21.5q-4 2 -8 2t-8 -2t-9 -6t-7 -7q-1 -3 -0.5 -6t-0.5 -6q-4 -7 -12 -11.5t-18 -3.5h-3h-4q-9 -1 -18 -2.5
t-17 -4.5q-9 -4 -17 -8.5t-15 -10.5v0zM240 504q4 3 8.5 5.5t9.5 4.5q8 3 17.5 3.5t10.5 0.5q22 0 40.5 9t28.5 27q9 -7 16 -15.5t12 -19.5q-6 -37 -26.5 -62t-46.5 -25q-24 0 -43 20t-27 52v0zM296 410q4 -1 8 -1.5t9 -0.5q4 0 8.5 0.5t8.5 1.5q4 -14 13 -25.5t21 -18.5
q-6 -16 -20 -26t-31 -10q-18 0 -31.5 10t-19.5 26q12 7 20.5 18.5t13.5 25.5v0zM173 248v76q0 15 11 26t26 11h8t10 1q10 -26 33 -42.5t52 -16.5t52 16.5t32 42.5q3 -1 10.5 -1h8.5q15 0 26 -11t11 -26v-76h-280v0z" />
    <glyph glyph-name="uniE936" unicode="&#xe936;" 
d="M679 616q0 49 -19 92.5t-51.5 76t-76 51.5t-92.5 19q-50 0 -93.5 -19t-75.5 -51.5t-51 -76t-19 -92.5t19 -92.5t51 -76t75.5 -51.5t93.5 -19q49 0 92.5 19t76 51.5t51.5 76t19 92.5zM321 448q17 12 37 20.5t40 12.5q14 5 41.5 5t41.5 -5q21 -4 40.5 -12.5t37.5 -20.5
q-26 -18 -56 -28t-63 -10t-63.5 10t-55.5 28v0zM339 609q0 45 30 76.5t72 31.5t72 -31.5t30 -76.5q0 -32 -16 -57.5t-41 -39.5q-11 3 -22 4.5t-23 1.5q-11 0 -22.5 -1.5t-22.5 -4.5q-25 14 -41 39.5t-16 57.5v0zM234 616q0 43 16 80.5t44 65.5t65.5 44t80.5 16q42 0 80 -16
t66 -44t44 -65.5t16 -80.5t-16.5 -81t-45.5 -66q-13 11 -28.5 19.5t-31.5 14.5q26 19 41.5 48.5t15.5 64.5q0 58 -41.5 99.5t-99.5 41.5t-99.5 -41.5t-41.5 -99.5q0 -35 15.5 -64.5t41.5 -48.5q-16 -6 -31.5 -14.5t-29.5 -19.5q-28 28 -44.5 66t-16.5 81v0zM872 267
l-175 180q24 36 37.5 79t13.5 90q0 64 -24.5 120t-66 97.5t-98 66t-119.5 24.5q-64 0 -120 -24.5t-97.5 -66t-66 -97.5t-24.5 -120q0 -45 12.5 -86.5t35 -77.5t54 -64t69.5 -47v-138q0 -14 9 -23t21 -9h6v-171q0 -14 9 -23t22 -9h52q4 0 8 1t8 3q3 -2 7 -3t9 -1h52
q13 0 22 9t9 23v171h6q13 0 22 9t9 23v136q7 4 14 7.5t14 8.5l176 -180q11 -11 24.5 -17t27.5 -6q13 0 24.5 4.5t20.5 13.5q19 19 18.5 47.5t-21.5 49.5v0zM174 616q0 55 21 103.5t57 84.5t84.5 57t103.5 21t103 -21t84.5 -57t57 -84.5t20.5 -103.5t-20.5 -103.5t-57 -84.5
t-84.5 -57t-103 -21t-103.5 21t-84.5 57t-57 84.5t-21 103.5v0zM544 203q0 -2 -0.5 -2.5l-0.5 -0.5h-22q-6 0 -10.5 -4t-4.5 -11q0 -1 0.5 -2.5t0.5 -2.5v-1.5v-0.5v-178q0 -2 -0.5 -2.5l-0.5 -0.5h-52l-0.5 0.5t-0.5 2.5v0v0v178q0 6 -4.5 10.5t-10.5 4.5v0
q-6 0 -10.5 -4.5t-4.5 -10.5v-178v0v0q0 -2 -0.5 -2.5l-0.5 -0.5h-52q-1 0 -1 0.5v2.5v178h-0.5h-0.5q1 2 2 3.5t1 3.5q0 7 -4.5 11t-10.5 4h-23l-0.5 0.5t-0.5 2.5v125q26 -10 53 -15t55 -5q27 0 53.5 5t50.5 14v-124v0zM853 192q-10 -10 -25.5 -9t-27.5 13l-172 177
q14 10 26.5 22.5t23.5 26.5l172 -177q12 -11 13 -27t-10 -26v0z" />
    <glyph glyph-name="uniE937" unicode="&#xe937;" 
d="M103 287h-38q-6 0 -9.5 4t-3.5 9v507q0 6 3.5 9.5t9.5 3.5h38q6 0 10 -3.5t4 -9.5v-507q0 -5 -4 -9t-10 -4v0v0zM263 820h-65q-6 0 -10 -3.5t-4 -9.5v-507q0 -5 4 -9t10 -4h65q6 0 9.5 4t3.5 9v507q0 6 -3.5 9.5t-9.5 3.5v0zM383 820h-20q-5 0 -9 -3.5t-4 -9.5v-507
q0 -5 4 -9t9 -4h20q5 0 9 4t4 9v507q0 6 -4 9.5t-9 3.5v0zM544 820h-80q-6 0 -10 -3.5t-4 -9.5v-263q20 29 47.5 51.5t60.5 37.5v174q0 6 -4 9.5t-10 3.5v0v0zM639 820v0q-6 0 -10 -3.5t-4 -9.5v-154l14 2t13 1v151q0 6 -3.5 9.5t-9.5 3.5v0zM714 820h-9q-5 0 -9 -3.5
t-4 -9.5v-152q9 -1 18 -2.5t17 -3.5v158q0 6 -3.5 9.5t-9.5 3.5v0v0zM812 820h-43q-6 0 -9.5 -3.5t-3.5 -9.5v-167q18 -6 35.5 -16t33.5 -22v205q0 6 -4 9.5t-9 3.5v0v0zM972 159l-109 110q17 27 26.5 58.5t9.5 66.5q0 48 -18.5 90.5t-50 74t-74 50t-90.5 18.5
q-49 0 -91.5 -18.5t-74 -50t-50 -74t-18.5 -90.5q0 -49 18.5 -91.5t50 -74t74 -50t91.5 -18.5q34 0 65.5 9.5t58.5 27.5l110 -110q8 -8 17 -11.5t19 -3.5t19.5 3.5t16.5 11.5q15 15 15 36t-15 36v0v0zM479 394q0 77 54.5 131.5t132.5 54.5q77 0 131.5 -54.5t54.5 -131.5
q0 -78 -54.5 -132.5t-131.5 -54.5q-78 0 -132.5 54.5t-54.5 132.5v0v0z" />
    <glyph glyph-name="uniE938" unicode="&#xe938;" 
d="M275 396h-93q-10 0 -17 -7t-7 -17t7 -17t17 -7h93q10 0 17 7t7 17t-7 17t-17 7zM680 396h-93q-10 0 -17 -7t-7 -17t7 -17t17 -7h93q9 0 16.5 7t7.5 17t-7.5 17t-16.5 7zM937 787h-699q-27 0 -46 -19t-19 -46v-95h-106q-20 0 -34 -14t-14 -34v-414q0 -20 14 -34t34 -14
h733q20 0 34 14t14 34v111h89q27 0 46 19t19 46v381q0 27 -19 46t-46 19v0zM66 493v86h88q-4 -34 -28.5 -58t-59.5 -28zM67 165v87q34 -4 58 -28.5t28 -58.5h-86zM800 165h-88q5 34 29.5 58t58.5 28v-86v0zM800 299q-54 -4 -92.5 -42t-43.5 -92h-463q-4 54 -42 92.5
t-92 43.5v144q54 4 92.5 42t43.5 92h462q4 -54 42.5 -92.5t92.5 -43.5v-144zM713 579h87v-88q-34 5 -58.5 29.5t-28.5 58.5zM954 341q0 -7 -5 -12t-12 -5h-89v255q0 20 -14 34t-34 14h-579v95q0 7 5 12t12 5h699q7 0 12 -5t5 -12v-381v0zM464 368q-1 4 -4 8t-6 7
q-3 2 -6.5 4.5t-7.5 4.5q-3 2 -7.5 3.5t-9.5 3.5l-30 9q-5 2 -7.5 3.5t-3.5 2.5q0 1 -0.5 2t-0.5 4q0 2 1 3.5t3 3.5q3 2 8 3t11 1q5 0 9 -0.5t8 -2.5q4 -1 7.5 -3t5.5 -3q3 -2 5.5 -3t5.5 -1q4 0 7.5 1.5t6.5 4.5q2 3 3.5 6.5t1.5 7.5q0 3 -1.5 6.5t-4.5 6.5q-4 4 -10 7
t-14 6t-15.5 4t-16.5 1q-8 0 -16 -1t-14 -4q-8 -3 -13.5 -7.5t-10.5 -9.5q-4 -6 -6.5 -13t-2.5 -15q0 -10 3 -17.5t8 -13.5q5 -5 12 -9.5t17 -7.5l30 -10q3 -1 5 -2l4 -2q2 0 3 -1l2 -2q1 0 1.5 -0.5t0.5 -1.5t0.5 -2.5t0.5 -3.5q0 -3 -1 -5t-4 -3q-3 -2 -8 -3.5t-11 -1.5
q-10 0 -18.5 3t-15.5 9v0q-2 2 -4.5 2.5t-4.5 0.5q-3 0 -7 -1.5t-8 -5.5q-3 -3 -4.5 -6.5t-1.5 -7.5q0 -3 1.5 -6t3.5 -5q11 -10 25.5 -15.5t32.5 -5.5q15 0 26.5 3.5t20.5 10.5q10 7 15 17t5 23q0 5 -1 9.5t-3 9.5v0zM543 463q-3 2 -6 3.5t-7 1.5q-6 0 -11 -3.5t-7 -9.5
l-50 -151v-3.5v-2.5q0 -4 1.5 -7.5t4.5 -5.5q2 -2 5 -3.5t7 -1.5q6 0 10.5 3.5t6.5 9.5l51 151q0 2 0.5 3t0.5 3q0 4 -2 7.5t-4 5.5v0z" />
    <glyph glyph-name="uniE939" unicode="&#xe939;" 
d="M634 935h-253q-41 0 -70 -29t-29 -70v-251q0 -41 29 -69.5t70 -28.5h253q41 0 70.5 28.5t29.5 69.5v251q0 41 -29.5 70t-70.5 29zM686 585q0 -21 -15 -36t-37 -15h-253q-21 0 -36.5 15t-15.5 36v251q0 21 15.5 36.5t36.5 15.5h253q22 0 37 -15.5t15 -36.5v-251zM651 803
q-7 6 -17 6t-16 -6l-135 -134l-60 58q-7 7 -16.5 7t-16.5 -7t-7 -16.5t7 -16.5l76 -75q3 -4 7.5 -5.5t8.5 -1.5q5 0 9.5 1.5t7.5 5.5l152 150q7 7 7 17t-7 17zM634 408h-253q-41 0 -70 -29t-29 -70v-250q0 -41 29 -70t70 -29h253q41 0 70.5 29t29.5 70v250q0 41 -29.5 70
t-70.5 29zM686 59q0 -22 -15 -37t-37 -15h-253q-21 0 -36.5 15t-15.5 37v250q0 22 15.5 37t36.5 15h253q22 0 37 -15t15 -37v-250zM600 125l-59 59l59 59q7 7 7 16.5t-7 16.5q-6 7 -16 7t-17 -7l-59 -59l-59 59q-7 7 -17 7t-17 -7t-7 -16.5t7 -16.5l59 -59l-59 -59
q-7 -6 -7 -16t7 -17q4 -3 8 -5t9 -2q4 0 8.5 2t8.5 5l59 59l59 -59q3 -3 7.5 -5t9.5 -2q4 0 8.5 2t7.5 5q7 7 7 17t-7 16z" />
    <glyph glyph-name="uniE93A" unicode="&#xe93a;" 
d="M254 610l64 -11q-3 12 -5.5 24.5t-3.5 24.5l59 -8v-36h156v25h27v-25h156v35l49 8q0 -9 -1 -18.5t-3 -19.5l49 9q-4 50 -17 105t-43.5 101.5t-81.5 76.5t-130 30q-23 0 -46 -2.5t-34 -8.5q-12 -5 -16.5 -14t-11.5 -11q-8 -3 -17.5 -3t-16.5 -4q-52 -25 -80 -64.5
t-40.5 -77t-13.5 -64.5l-1 -27l2 -45v0zM506 621h-121v62h121v-62zM690 621h-122v62h122v-62v0zM310 688q46 3 90 37t48 85q60 -49 137.5 -60t147.5 -17q9 -4 15 -20.5t8 -39.5l-49 -8v35h-156v-36h-27v36h-156v-34l-60 9q0 3 0.5 6.5t1.5 6.5v0v0zM903 296q0 24 -9 44.5
t-24 32.5v231l-352 -56l-353 56v-225q-19 -11 -30 -33t-11 -50t11 -50t30 -33v-185l353 -56l352 56v191q15 12 24 32.5t9 44.5v0v0zM502 7l-305 48v150q27 2 46.5 28t19.5 63q0 36 -19.5 62.5t-46.5 27.5v180l305 -48v-511zM838 55l-305 -48v511l305 48v-180q-1 0 -2 0.5
t-3 0.5q-28 0 -48.5 -26.5t-20.5 -64.5t20.5 -64.5t48.5 -26.5h3h2v-150v0z" />
    <glyph glyph-name="uniE93B" unicode="&#xe93b;" 
d="M258 609q-6 0 -10.5 4.5t-4.5 10.5t4.5 10t10.5 4h148q6 0 10 -4t4 -10t-4 -10.5t-10 -4.5h-148zM346 550q0 -6 -4 -10.5t-10 -4.5t-10.5 4.5t-4.5 10.5v148q0 6 4.5 10t10.5 4t10 -4t4 -10v-148zM609 609q-5 0 -9.5 4.5t-4.5 10.5t4.5 10t9.5 4h149q6 0 10 -4t4 -10
t-4 -10.5t-10 -4.5h-149v0zM211 433q-6 0 -10 4.5t-4 10.5t4 10t10 4h593q6 0 10 -4t4 -10t-4 -10.5t-10 -4.5h-593v0zM522 152q0 -6 -4 -10.5t-10 -4.5t-10.5 4.5t-4.5 10.5v592q0 6 4.5 10t10.5 4t10 -4t4 -10v-592zM878 878h-741q-12 0 -23 -5t-19 -13t-12.5 -19
t-4.5 -23v-741q0 -12 4.5 -23t12.5 -19v0q8 -8 19 -12.5t23 -4.5h741q12 0 23 4.5t19 12.5v0q8 8 13 19t5 23v741q0 12 -5 23t-13 19v0q-8 8 -19 13t-23 5v0v0zM137 907h741q18 0 34 -7t28 -19t19 -28.5t7 -34.5v-741q0 -18 -7 -34t-19 -28t-28 -19t-34 -7h-741q-18 0 -34 7
t-28 19t-19 28t-7 34v741q0 18 7 34t19 29v0v0q12 12 28 19t34 7v0v0zM892 152q0 -6 -4 -10.5t-10 -4.5t-10 4.5t-4 10.5v652h-712v-712h726q6 0 10 -4.5t4 -10.5q0 -5 -4 -9.5t-10 -4.5h-741q-6 0 -10 4t-4 10v741q0 6 4 10.5t10 4.5h741q6 0 10 -4.5t4 -10.5v-666v0z
M260 256q-6 0 -10 4t-4 10t4 10t10 4h143q6 0 10.5 -4t4.5 -10t-4.5 -10t-10.5 -4h-143zM303 320q-6 0 -10 4.5t-4 10.5t4 10t10 4h29q6 0 10 -4t4 -10t-4 -10.5t-10 -4.5h-29zM332 191q-6 0 -10.5 4.5t-4.5 10.5q0 5 4.5 9.5t10.5 4.5h28q6 0 10.5 -4.5t4.5 -9.5
q0 -6 -4.5 -10.5t-10.5 -4.5h-28zM609 299q-5 0 -9.5 4t-4.5 10t4.5 10.5t9.5 4.5h149q6 0 10 -4.5t4 -10.5t-4 -10t-10 -4h-149v0zM609 213q-5 0 -9.5 4t-4.5 10t4.5 10.5t9.5 4.5h149q6 0 10 -4.5t4 -10.5t-4 -10t-10 -4h-149v0z" />
    <glyph glyph-name="uniE93C" unicode="&#xe93c;" 
d="M863 682h-595q-41 0 -70.5 29.5t-29.5 70.5q0 42 29.5 71.5t70.5 29.5h595q11 0 19 7.5t8 18.5t-8 19t-19 8h-595q-63 0 -108 -45t-45 -109v-668q0 -64 45 -109t108 -45h595q11 0 19 8t8 19v669q0 11 -8 18.5t-19 7.5v0v0zM859 -3h-593q-43 0 -74 30.5t-31 73.5v577
q22 -18 48.5 -28.5t56.5 -10.5h593v-642zM277 807q-11 0 -19 -8t-8 -19t8 -19t19 -8h502q11 0 19 8t8 19t-8 19t-19 8h-502v0zM371 131q2 -1 4.5 -1.5t4.5 -0.5q8 0 15 5t10 13l33 91h125h2h1l33 -91q3 -8 10 -13t15 -5q2 0 4.5 0.5t4.5 1.5q10 3 15 13t1 21l-122 341v1.5
t-1 1.5v1l-1 1l-0.5 0.5t-0.5 1.5v0v0q0 1 -0.5 1t-0.5 1h-0.5h-0.5q0 1 -0.5 1h-0.5l-1 1l-0.5 0.5l-0.5 0.5l-0.5 0.5l-0.5 0.5l-0.5 0.5l-0.5 0.5h-0.5t-0.5 1h-1l-2 1l-0.5 0.5t-1.5 0.5v0h-3v0.5t-1 0.5h-0.5h-0.5h-1v0h-1.5h-0.5h-2h-1.5h-0.5h-0.5h-0.5h-1h-1v-0.5
t-1 -0.5h-0.5h-1.5v0q-1 0 -1.5 -0.5l-0.5 -0.5l-2 -1h-1q0 -1 -0.5 -1h-0.5l-0.5 -0.5l-0.5 -0.5l-0.5 -0.5l-0.5 -0.5h-0.5t-0.5 -1l-2 -2h-0.5h-0.5q0 -1 -0.5 -1t-0.5 -1v0h-1v-1v-1l-1 -1l-1 -1v-1.5t-1 -1.5l-122 -341q-3 -11 2 -21t15 -13v0v0zM502 418l45 -127h-90z
" />
    <glyph glyph-name="uniE93D" unicode="&#xe93d;" 
d="M50 -14q-6 0 -10 4.5t-4 10.5t4 10.5t10 4.5h909q7 0 11 -4.5t4 -10.5t-4 -10.5t-11 -4.5h-909v0zM96 602h818l-409 290l-409 -290v0zM959 573h-909q-3 0 -6 1.5t-5 4.5q-4 5 -3 11t6 9l454 323q4 2 8.5 2.5t8.5 -2.5l454 -322q3 -2 5 -5.5t2 -7.5q0 -6 -4 -10t-11 -4v0
v0zM497 780q-5 4 -6.5 10t2.5 11q3 5 9 6t11 -2l132 -88q5 -4 6 -9.5t-2 -10.5q-3 -6 -9 -7t-11 2l-132 88v0zM90 45q-6 0 -10.5 4t-4.5 10t4.5 10.5t10.5 4.5h830q6 0 10 -4.5t4 -10.5t-4 -10t-10 -4h-830v0zM130 103q-6 0 -10.5 4.5t-4.5 10.5t4.5 10.5t10.5 4.5h750
q6 0 10.5 -4.5t4.5 -10.5t-4.5 -10.5t-10.5 -4.5h-750v0zM740 529q0 6 4 10t10 4t10.5 -4t4.5 -10v-338h59v338q0 6 4 10t10 4t10.5 -4t4.5 -10v-352q0 -6 -4.5 -10.5t-10.5 -4.5h-88q-6 0 -10 4.5t-4 10.5v352v0zM497 805q5 3 11 2t9 -6t2 -11t-6 -10l-132 -88
q-5 -3 -11 -2t-9 7q-4 5 -2.5 10.5t6.5 9.5zM153 529q0 6 4 10t11 4q6 0 10 -4t4 -10v-338h59v338q0 6 4.5 10t10.5 4t10 -4t4 -10v-352q0 -6 -4 -10.5t-10 -4.5h-88q-7 0 -11 4.5t-4 10.5v352v0zM344 529q0 6 4 10t10 4t10.5 -4t4.5 -10v-338h59v338q0 6 4 10t10 4t10.5 -4
t4.5 -10v-352q0 -6 -4.5 -10.5t-10.5 -4.5h-88q-6 0 -10 4.5t-4 10.5v352v0zM549 529q0 6 4.5 10t10.5 4t10 -4t4 -10v-338h59v338q0 6 4.5 10t10.5 4t10 -4t4 -10v-352q0 -6 -4 -10.5t-10 -4.5h-88q-6 0 -10.5 4.5t-4.5 10.5v352v0z" />
    <glyph glyph-name="uniE93E" unicode="&#xe93e;" 
d="M541 575l61 -35q2 -1 3.5 -1.5t3.5 -0.5q4 0 8 2t6 6q3 6 1.5 12t-7.5 9l-60 35q-6 3 -12 1.5t-9 -7.5q-4 -5 -2 -11.5t7 -9.5v0zM367 499q-7 0 -11.5 -4.5t-4.5 -11.5v-69q0 -7 4.5 -11.5t11.5 -4.5q6 0 10.5 4.5t4.5 11.5v69q0 7 -4.5 11.5t-10.5 4.5v0v0zM602 357
l-61 -35q-5 -3 -7 -9.5t2 -11.5q2 -4 5.5 -6t7.5 -2q2 0 4 0.5t4 1.5l60 35q6 3 7.5 9.5t-1.5 11.5q-3 6 -9.5 7.5t-11.5 -1.5v0v0zM916 270q-12 0 -22 -4t-18 -12l-109 63q1 3 1.5 6.5t0.5 7.5q0 20 -12 35t-29 20v125q17 6 29 21t12 34q0 4 -0.5 7.5t-1.5 6.5l109 63
q8 -8 18 -12t22 -4q23 0 39.5 16.5t16.5 40.5q0 23 -16.5 39.5t-39.5 16.5q-24 0 -40.5 -16.5t-16.5 -39.5q0 -4 0.5 -7.5t1.5 -6.5l-109 -63q-8 7 -18 11.5t-22 4.5q-11 0 -21.5 -4.5t-18.5 -11.5l-108 63q0 3 0.5 6.5t0.5 7.5q0 19 -11.5 34t-29.5 20v181q0 6 -4.5 10.5
t-11.5 4.5q-6 0 -10.5 -4.5t-4.5 -10.5v-181q-18 -5 -29.5 -20t-11.5 -34q0 -4 0.5 -7.5t0.5 -6.5l-109 -63q-7 7 -17.5 11.5t-21.5 4.5q-12 0 -22 -4.5t-18 -11.5l-109 63q1 3 1.5 6.5t0.5 7.5q0 23 -16.5 39.5t-40.5 16.5q-23 0 -40 -16.5t-17 -39.5q0 -24 17 -40.5
t40 -16.5q12 0 22 4t18 12l109 -63q-1 -3 -1.5 -6.5t-0.5 -7.5q0 -19 12 -34t29 -21v-125q-17 -5 -29 -20t-12 -35q0 -4 0.5 -7.5t1.5 -6.5l-109 -63q-8 8 -18 12t-22 4q-23 0 -40 -16.5t-17 -39.5q0 -24 17 -40.5t40 -16.5q24 0 40.5 16.5t16.5 40.5q0 3 -0.5 6.5t-1.5 6.5
l109 63q8 -7 18 -11.5t22 -4.5q11 0 21.5 4.5t17.5 11.5l109 -63q0 -3 -0.5 -6.5t-0.5 -6.5q0 -20 11.5 -35t29.5 -20v-181q0 -6 4.5 -10.5t10.5 -4.5q7 0 11.5 4.5t4.5 10.5v181q18 5 29.5 20t11.5 35q0 3 -0.5 6.5t-0.5 6.5l108 63q8 -7 18.5 -11.5t21.5 -4.5q12 0 22 4.5
t18 11.5l109 -63q-1 -3 -1.5 -6.5t-0.5 -6.5q0 -24 16.5 -40.5t40.5 -16.5q23 0 39.5 16.5t16.5 40.5q0 23 -16.5 39.5t-39.5 16.5v0v0zM916 709q10 0 17.5 -7.5t7.5 -17.5q0 -11 -7.5 -18.5t-17.5 -7.5q-11 0 -18.5 7.5t-7.5 18.5q0 10 7.5 17.5t18.5 7.5v0v0zM101 658
q-10 0 -18 7.5t-8 18.5q0 10 8 17.5t18 7.5q11 0 18.5 -7.5t7.5 -17.5q0 -11 -7.5 -18.5t-18.5 -7.5v0zM101 188q-10 0 -18 7.5t-8 18.5q0 10 8 17.5t18 7.5q11 0 18.5 -7.5t7.5 -17.5q0 -11 -7.5 -18.5t-18.5 -7.5v0zM712 592q11 0 18.5 -7.5t7.5 -18.5t-7.5 -18.5
t-18.5 -7.5t-18.5 7.5t-7.5 18.5t7.5 18.5t18.5 7.5v0zM508 709q11 0 18.5 -7.5t7.5 -17.5q0 -11 -7.5 -18.5t-18.5 -7.5q-10 0 -17.5 7.5t-7.5 18.5q0 10 7.5 17.5t17.5 7.5v0v0zM279 566q0 11 7.5 18.5t18.5 7.5t18.5 -7.5t7.5 -18.5t-7.5 -18.5t-18.5 -7.5t-18.5 7.5
t-7.5 18.5v0zM305 305q-11 0 -18.5 7.5t-7.5 18.5t7.5 18.5t18.5 7.5t18.5 -7.5t7.5 -18.5t-7.5 -18.5t-18.5 -7.5v0zM508 188q-10 0 -17.5 7.5t-7.5 18.5q0 10 7.5 17.5t17.5 7.5q11 0 18.5 -7.5t7.5 -17.5q0 -11 -7.5 -18.5t-18.5 -7.5v0v0zM655 331q0 -4 0.5 -7.5
t1.5 -6.5l-109 -63q-8 8 -18 12t-22 4q-11 0 -21 -4t-18 -12l-109 63q1 3 1.5 6.5t0.5 7.5q0 20 -12 35t-30 20v125q18 6 30 21t12 34q0 4 -0.5 7.5t-1.5 6.5l109 63q8 -8 18 -12t21 -4q12 0 22 4t18 12l109 -63q-1 -3 -1.5 -6.5t-0.5 -7.5q0 -19 12 -34t30 -21v-125
q-18 -5 -30 -20t-12 -35v0v0zM712 305q-11 0 -18.5 7.5t-7.5 18.5t7.5 18.5t18.5 7.5t18.5 -7.5t7.5 -18.5t-7.5 -18.5t-18.5 -7.5v0v0zM916 188q-11 0 -18.5 7.5t-7.5 18.5q0 10 7.5 17.5t18.5 7.5q10 0 17.5 -7.5t7.5 -17.5q0 -11 -7.5 -18.5t-17.5 -7.5v0z" />
    <glyph glyph-name="uniE93F" unicode="&#xe93f;" 
d="M41 379h23q11 -38 25 -62.5t29 -36.5q30 -21 65.5 -25.5t83.5 -6.5h4h4.5h11.5q39 0 81.5 5.5t58.5 23.5q19 23 32.5 57t17.5 69q0 1 4.5 11t27.5 10t28 -9.5t5 -11.5q4 -35 17.5 -69t33.5 -57q15 -18 57.5 -23.5t81.5 -5.5h11.5h4.5h4q48 2 83.5 6.5t65.5 25.5
q16 12 29.5 36.5t24.5 62.5h25q8 0 14 6t7 14l2 17q1 3 0 6.5t-3 6.5q1 2 0 4.5t-2 4.5q-9 7 -45 40t-79.5 68.5t-85 64.5t-61.5 29q-39 -1 -86.5 -45.5t-50.5 -47.5q-1 -1 -1.5 -3.5t-0.5 -4.5l4 -16q2 -8 6.5 -11t9.5 -3q2 0 6 1.5t9 6.5q33 37 59 58.5t38 21.5
q13 0 64.5 -40t105.5 -87q-24 3 -57 4t-75 1q-61 0 -120.5 -2t-93.5 -4q-14 -1 -34.5 -1t-34.5 1q-34 2 -93.5 4t-120.5 2q-39 0 -70.5 -1t-55.5 -3q54 46 105 86t64 40q12 0 38.5 -21.5t59.5 -58.5q4 -5 8 -6.5t7 -1.5q4 0 8.5 3t6.5 11l4 16q1 2 0 4.5t-2 3.5
q-3 3 -51 47.5t-87 45.5q-19 0 -60.5 -29t-85 -64.5t-79.5 -68.5t-44 -40q-2 -1 -2.5 -2.5t-0.5 -3.5l-0.5 -0.5t-1.5 -0.5q-2 -3 -3.5 -7t-0.5 -8l1 -17q1 -8 7.5 -14t14.5 -6v0v0zM581 426q6 6 18.5 7.5t25.5 1.5h7l44 0.5t81 -0.5q1 0 63 -1.5t79 -3.5q9 -1 15 -3.5
t9 -6.5q2 -2 2.5 -5.5t0.5 -7.5q-1 -8 -18 -60t-71 -61q-17 -3 -36.5 -4.5t-42.5 -1.5h-19q-23 0 -43 1.5t-36 4.5q-49 8 -63 51t-17 64q-1 2 -1 4v3q-1 6 -0.5 10.5t2.5 7.5v0v0zM97 420q3 4 9 6.5t15 3.5q18 2 79.5 3.5t62.5 1.5h30h31h45h19h7q14 0 26 -1.5t18 -7.5
q2 -3 3 -7.5t-1 -10.5v-3t-1 -4q-3 -22 -17 -64.5t-63 -50.5q-16 -3 -36 -4.5t-42 -1.5h-20q-23 0 -42.5 1.5t-36.5 4.5q-54 9 -70.5 61t-18.5 60q0 4 0.5 7.5t2.5 5.5v0v0z" />
    <glyph glyph-name="uniE940" unicode="&#xe940;" 
d="M525 350q-20 0 -38 7t-32 20q-20 20 -31.5 53t-11.5 76q0 26 7 47t22 36q14 14 35.5 22t49.5 8q56 0 85.5 -29.5t29.5 -83.5q0 -43 -11 -74.5t-32 -52.5q-23 -22 -45.5 -26t-26.5 -3h-0.5h-0.5v0zM527 375q1 0 18 2.5t36 20.5q17 17 25.5 44t8.5 64q0 44 -22 65.5
t-67 21.5q-22 0 -39 -5.5t-28 -17.5q-11 -10 -16.5 -26.5t-4.5 -37.5q0 -37 9 -65.5t26 -45.5q11 -10 24.5 -15t28.5 -5h0.5h0.5v0zM741 142h-430q-3 0 -5.5 1t-4.5 4q-2 2 -2.5 5t0.5 6q0 1 0.5 5.5t0.5 9.5q3 44 11 84t31 49l99 40l23 18q8 7 19 7t19 -8l24 -24l24 24
q8 8 19 8.5t20 -7.5l22 -18l100 -40l0.5 -0.5t1.5 -0.5q22 -11 29.5 -50.5t9.5 -81.5q1 -5 1.5 -9.5t0.5 -5.5q1 -3 0 -6t-2 -5q-2 -3 -5 -4t-6 -1v0zM325 167h402v2v2q-1 14 -2.5 32.5t-5.5 36.5q-5 27 -11 34.5t-7 7.5l-0.5 0.5l-0.5 0.5l-100 40q-1 0 -2 0.5t-2 1.5
l-23 20h-2.5h-2.5l-33 -33q-3 -4 -8.5 -4t-9.5 4l-33 32q-1 1 -2 1h-2l-24 -20q0 -1 -1 -1.5t-2 -0.5l-102 -41q-1 0 -6.5 -7.5t-10.5 -34.5q-4 -18 -5.5 -36.5t-2.5 -31.5q0 -2 -0.5 -3t-0.5 -2v0zM795 506q-15 0 -28 5t-23 15q-15 15 -23 38t-8 54q0 19 5 34t16 25
q11 11 26.5 16.5t35.5 5.5q40 0 61 -21t21 -60q0 -30 -7.5 -53t-22.5 -37q-17 -16 -33 -19t-19 -3h-1v0v0zM796 532q1 0 12 1.5t22 13.5q11 10 17 28t6 43q0 28 -14 42t-43 14q-15 0 -26 -4t-18 -11t-10.5 -17t-2.5 -24q0 -25 6 -44t17 -29q7 -7 15 -10t18 -3h1v0v0z
M943 364h-295q-3 0 -6 1t-4 4q-2 2 -2.5 5t-0.5 5q0 1 0.5 4t0.5 7q2 32 8 59.5t23 34.5l68 27l15 12q7 6 16 6t16 -7l14 -13l13 13q7 7 16 7t16 -6l15 -12l67 -27h0.5h0.5q17 -7 23 -35t8 -60q0 -3 0.5 -6t0.5 -4q1 -2 0 -5t-2 -5q-2 -3 -5 -4t-6 -1v0zM956 380v-0.5v-0.5
v0.5v0.5zM635 380v0v-1v1v0zM662 389h267q0 9 -1 21t-4 23q-3 17 -6 22t-4 5v0v0l-69 28q-1 0 -2 0.5t-2 1.5l-15 13l-21 -22q-4 -3 -9.5 -3t-8.5 3l-22 22l-15 -13l-1.5 -1.5t-1.5 -0.5l-70 -28l-3.5 -4.5t-6.5 -22.5q-2 -11 -3.5 -23t-1.5 -21v0zM766 504v0v0v0zM245 494
q-15 0 -27.5 5.5t-23.5 15.5q-14 14 -22 37.5t-9 53.5q0 19 5.5 34t15.5 26q11 10 26.5 15.5t35.5 5.5q40 0 61.5 -21t21.5 -60q0 -30 -8 -52.5t-23 -37.5q-17 -16 -33 -19t-19 -3h-0.5h-0.5v0zM246 520q1 0 12 2t23 13q11 11 16.5 28.5t5.5 42.5q0 29 -14 42.5t-43 13.5
q-15 0 -26 -3.5t-18 -11.5q-6 -6 -9.5 -16.5t-3.5 -24.5q0 -25 6 -43.5t17 -29.5q7 -7 15.5 -10t18.5 -3v0v0v0zM394 352h-296q-3 0 -5.5 1t-4.5 4q-2 2 -2.5 5t0.5 6v4t1 6q2 32 7.5 59.5t23.5 34.5l68 27l14 13q7 6 16.5 5.5t15.5 -7.5l14 -13l14 13q6 7 15.5 7.5
t16.5 -5.5l14 -13l68 -27q18 -7 23.5 -34.5t7.5 -59.5q1 -3 1 -6v-5q1 -2 0.5 -5t-2.5 -5q-2 -3 -4.5 -4t-5.5 -1v0zM406 368v0v0v0v0zM86 368v0v0v0v0zM112 377h268q-1 9 -2 21t-3 23q-4 18 -7 22.5l-3 4.5l-70 28q-1 1 -2 1.5t-2 0.5l-15 13l-21 -21q-4 -4 -9 -4t-9 4
l-22 21l-15 -13l-1 -0.5t-2 -1.5l-70 -28l-3 -4.5t-7 -21.5q-2 -12 -3 -24t-2 -21v0zM365 448v0v0v0z" />
    <glyph glyph-name="uniE941" unicode="&#xe941;" 
d="M874 -14h-724q-9 0 -15 6t-6 15v483v3.5v3.5v0h1v0v0v0v0v0v0v0v0v0q0 2 1 4t3 4q1 1 3 2.5t4 2.5t4 1.5t5 0.5v0h1h99l12 84q2 8 8 13.5t14 5.5h457q8 0 14 -5.5t7 -13.5l13 -84h99h0.5h0.5q2 0 4.5 -0.5t4.5 -1.5t3.5 -2t3.5 -3q1 -2 2 -3.5t2 -3.5v0v0v0v0v0v-0.5
v-0.5v0v0v0v0v0v0v0v0v0v0v0v0v0v0v0v0v0v0v0v0v0v0v0v0v0v0v0v0v0v0v0v0v0v0v0v0v0v0v0v0v0v0v0v0v0v0v0v0v0v0v0v-1v0q1 -1 1 -2.5v-3.5v-483q0 -9 -6.5 -15t-15.5 -6v0v0zM159 21h707l3 452l-249 -200l-3 -41q0 -10 -6.5 -16.5t-15.5 -6.5h-165q-9 0 -16 6.5t-7 16.5v44
l-248 196v-451v0zM438 236h149v77h-149v-77zM430 341h165q9 0 15.5 -7t6.5 -16v-6l207 165h-58v0v0h-507h-0.5h-0.5h-56l205 -162v3q0 9 7 16t16 7v0v0zM285 512h458l-10 80h-438l-10 -80v0zM129 556v311q0 9 6 15.5t15 6.5h121q9 0 15.5 -6.5t6.5 -15.5v-50h99
q9 0 15.5 -6.5t6.5 -15.5v-40h98q9 0 15.5 -6.5t6.5 -15.5v-84q0 -9 -3.5 -15.5t-12.5 -6.5t-12 6.5t-3 15.5v78h-89v-78q0 -9 -5 -15.5t-14 -6.5t-10.5 6.5t-1.5 15.5v140h-90v-140q0 -9 -5 -15.5t-14 -6.5t-13.5 6.5t-4.5 15.5v212h-93v-305q0 -9 -5.5 -15.5t-13.5 -6.5
t-11.5 6.5t-3.5 15.5v0z" />
    <glyph glyph-name="uniE942" unicode="&#xe942;" 
d="M920 192q-15 22 -35.5 36.5t-44.5 21.5h-0.5h-0.5l-137 26l-46 61q2 2 3.5 4t3.5 5q30 37 47 85t17 98v59q32 103 28 182t-15 103v0v0v1v0v0.5t-1 0.5v0v0v0.5v0.5h-0.5h-0.5v0.5v0.5v0v0q-1 0 -1 0.5v0.5v0v0q-1 0 -1 0.5v0.5v0h-1v0v0q0 1 -0.5 1h-0.5v0v0h-1v0v0.5
t-1 0.5v0v0h-0.5h-0.5v0h-1v0v0h-0.5h-0.5v0v0h-1v0h-0.5h-0.5v0v0h-1v0v0v0q-28 -4 -61 1t-69 13q-60 12 -119 16.5t-107 -30.5h-1h-2q-49 0 -80 -36.5t-31 -94.5q0 -46 13.5 -112t15.5 -77v-32q0 -50 17 -98t47 -85q2 -3 4 -5l4 -4l-47 -61l-137 -26h-0.5h-0.5
q-24 -7 -44.5 -21.5t-35.5 -36.5q-13 -20 -20.5 -43.5t-7.5 -46.5v-81q0 -22 17 -37.5t41 -15.5h768q24 0 41 15.5t17 37.5v81q0 23 -7.5 46.5t-20.5 43.5v0v0zM311 248l82 -121q-24 19 -50 47.5t-54 69.5l22 4v0zM506 205l-65 72q16 -5 32.5 -8t32.5 -3q17 0 33 3t32 8
l-65 -72v0zM506 179l48 -43q-19 -11 -31 -15.5t-17 -5.5q-5 1 -17.5 5.5t-30.5 15.5l48 43v0zM439 117l9 7q25 -14 40 -18.5t16 -4.5h1.5h0.5h1.5h0.5q1 0 16.5 4.5t39.5 18.5l9 -7q4 -4 9 -6t10 -2q1 0 2 0.5l1 0.5h1.5h0.5q-34 -24 -56.5 -31.5t-27.5 -7.5l-7 -2l-7 2
q-5 0 -27.5 7.5t-56.5 31.5h1.5h0.5q1 0 1.5 -0.5t1.5 -0.5q5 0 10 2t9 6v0v0zM701 248l22 -4q-27 -41 -53.5 -69.5t-49.5 -47.5l81 121v0zM594 126v0h-1h-0.5h-0.5v0.5t-1 0.5l-69 61l118 132l49 -62l-95 -132v0zM597 604q-21 0 -38.5 -10.5t-26.5 -27.5q-6 4 -12.5 6
t-13.5 2t-13.5 -2t-11.5 -6q-10 17 -27.5 27.5t-38.5 10.5q-23 0 -41.5 -12.5t-27.5 -32.5h-38q3 39 18.5 81t22.5 58q79 10 140.5 3.5t100.5 -15.5q35 -9 57 -18t30 -12l28 -66v-31h-39q-8 20 -27 32.5t-42 12.5v0v0zM646 528q0 -21 -15 -36t-36 -15t-36 15t-15 36t15 36
t36 15t36 -15t15 -36v0zM418 579q21 0 35.5 -15t14.5 -36t-14.5 -36t-35.5 -15t-36 15t-15 36t15 36t36 15v0zM280 752q0 55 26.5 81t58.5 26h2h2q3 0 6.5 0.5t5.5 2.5q42 31 98 26.5t113 -15.5q30 -6 58.5 -11t54.5 -5h9t8 1q7 -25 9.5 -86t-16.5 -140l-15 35q-1 2 -2.5 4
t-4.5 3q-2 1 -27 12.5t-70.5 22.5t-110.5 17t-146 -5v0v0h-0.5h-0.5v0h-1v0v0l-0.5 -0.5l-0.5 -0.5v0v0q-1 0 -1.5 -0.5t-1.5 -0.5l-2 -2l-2 -2v0v0v-1h-1v-0.5v-0.5v0v0q-1 -2 -11.5 -26.5t-20.5 -58.5q-6 30 -11 65t-5 59v0v0zM307 530v0h33v-0.5v-0.5q0 -31 22 -53
t53 -22t53 22t22 53q0 7 4.5 11.5t11.5 4.5t11.5 -4.5t4.5 -11.5q0 -31 22 -53t53 -22t53 22t22 53v0.5v0.5h33v0q0 -47 -15.5 -91.5t-44.5 -79.5q-28 -36 -64 -55t-75 -19q-38 0 -74 19t-65 55q-29 35 -44.5 80t-15.5 91v0v0zM371 322l121 -134l-71 -60q0 -1 -0.5 -1
t-0.5 -1v0h-1v0v1l-93 132l45 63v0zM174 226l87 17q0 -1 0.5 -2t1.5 -2q35 -53 71.5 -91.5t77.5 -65.5q32 -20 54 -27t28 -8l10 -2h1h1h1.5h0.5l10 2q6 1 28 8t54 27q41 27 76.5 66t71.5 93q0 1 0.5 1.5l1.5 1.5l88 -18q11 -3 20.5 -8t18.5 -11l-46 -46q-19 -19 -29 -43.5
t-10 -51.5v-72h-572v72q0 27 -10 51.5t-29 43.5l-45 46q8 6 17.5 11t20.5 8v0v0zM88 15v84q0 21 8 44t23 42l46 -47q16 -15 24 -35t8 -41v-73h-77q-13 0 -22.5 7.5t-9.5 18.5v0v0zM924 15q0 -11 -9 -18.5t-22 -7.5h-78v73q0 21 8.5 41t23.5 35l46 47q16 -19 23.5 -42
t7.5 -44v-84v0zM418 500q11 0 19.5 8t8.5 20q0 6 -4 10t-10 4q-5 0 -9 -4t-4 -10l-0.5 -0.5l-0.5 -0.5q-6 0 -10 -4t-4 -10q0 -5 4 -9t10 -4v0v0zM581 513q0 -5 4 -9t10 -4q12 0 20 8t8 20q0 6 -4 10t-10 4q-5 0 -9 -4t-4 -10l-0.5 -0.5l-0.5 -0.5q-6 0 -10 -4t-4 -10v0v0z
" />
    <glyph glyph-name="uniE943" unicode="&#xe943;" 
d="M927 133q-67 36 -121 57t-100 28l6 9q3 2 4 5.5t-1 6.5l-14 57q28 39 44 87t16 95v60h45q7 0 11 4t4 11t-4 11t-11 4h-15v15q0 45 -14 85.5t-40 74t-62 58t-81 36.5v3q0 18 -13 31.5t-32 13.5h-61q-18 0 -31.5 -13t-13.5 -32v-3q-44 -12 -80.5 -36.5t-62.5 -58t-40 -74
t-14 -85.5v-15h-15q-7 0 -11 -4t-4 -11t4 -11t11 -4h45v-60q0 -47 16 -95t44 -87l-14 -57q0 -2 0.5 -6t2.5 -6l6 -9q-46 -7 -99.5 -28t-121.5 -57q-22 -10 -33.5 -30t-11.5 -44v-65q0 -6 4 -10.5t11 -4.5h878q7 0 11 4.5t4 10.5v65q0 23 -12.5 43t-33.5 31v0zM510 147l9 21
l22 -50l15 -33h-74l28 62v0zM471 55h95l9 -45h-113zM678 266l6 -27l-16 -21l-1.5 -1.5t-0.5 -1.5l-63 -87l-20 -27l-41 91q36 5 68.5 22t58.5 44q1 0 1 0.5v0.5h1v0q1 2 3 3.5t4 3.5v0zM658 775q1 -1 2.5 -2t2.5 -1q14 -11 27.5 -23.5t23.5 -26.5l-70 -13l14 66v0zM393 709
l-70 13q11 14 24 26.5t27 23.5q2 0 3 1l2 2l14 -66v0zM276 583q0 31 7.5 59t21.5 53l105 -21h1.5h1.5q3 0 5.5 1t6.5 2q3 2 4 6t0 8l-20 101q8 3 16.5 6.5t17.5 6.5v-40q0 -7 4 -11t11 -4t11 4t4 11v75q0 6 4.5 10.5t10.5 4.5h61q6 0 10.5 -4t4.5 -11v-75q0 -7 4 -11t11 -4
t11 4t4 11v40q10 -3 18.5 -6.5t17.5 -7.5l-20 -99q0 -3 1 -7t3 -6q2 -3 4.5 -4t6.5 -1h1.5h1.5l104 22q14 -25 21.5 -53.5t7.5 -59.5v-15h-485v15v0zM307 538h424v-60q0 -50 -16 -93t-41 -76h-1q-1 -2 -2 -3l-2 -2q-6 -8 -12 -14.5t-12 -13.5q-27 -25 -58 -39t-62 -16
q-1 1 -3 1h-3h-3.5t-3.5 -1q-18 1 -37 7t-38 16q-18 10 -35.5 25.5t-32.5 34.5q-1 1 -2.5 2t-2.5 3h-1q-25 33 -40.5 76t-15.5 93v60v0v0zM496 192l-41 -91l-20 27l-63 87q-1 0 -1 0.5t-1 0.5l-16 23l6 27q1 -1 2.5 -3t3.5 -3q27 -27 59.5 -45t70.5 -23v0zM95 59
q0 15 7.5 27.5t21.5 19.5q72 39 126.5 59t100.5 26l91 -124l-12 -57h-335v49v0zM943 10h-336l-11 57l91 125q46 -7 101 -27t126 -57q13 -8 21 -21t8 -28v-49v0z" />
    <glyph glyph-name="uniE944" unicode="&#xe944;" 
d="M693 684h-118v39q0 6 -4 10t-10 4h-150q-6 0 -10 -4t-4 -10v-39h-118q-6 0 -11.5 -2.5t-10.5 -6.5q-4 -5 -6.5 -10.5t-2.5 -11.5v-311q0 -7 2.5 -12.5t6.5 -10.5q4 -4 10 -6.5t12 -2.5h414q6 0 12 2.5t10 6.5q4 5 6.5 10.5t2.5 12.5v311q0 6 -2.5 11.5t-6.5 10.5
q-5 4 -10.5 6.5t-11.5 2.5v0zM426 709h120v-25h-120v25v0zM349 339h-70q-1 0 -2 1t-1 2v311q0 1 1 1.5t2 0.5h70v-316v0zM594 339h-215v316h215v-316zM695 342q0 -2 -0.5 -2.5t-1.5 -0.5h-70v316h70q1 0 1.5 -0.5t0.5 -1.5v-311v0zM802 254q42 52 65.5 116.5t23.5 136.5
q0 84 -32 158t-87 129t-129 87t-158 32t-157.5 -32t-129 -87t-87 -129t-31.5 -158t31.5 -158t87 -129t129 -87t157.5 -32q51 0 98.5 12t89.5 34l-1 -1l157 -178l126 112l-153 174v0zM135 507q0 72 27.5 136t75 111.5t111.5 75.5t136 28q73 0 137 -28t111.5 -75.5t75 -111.5
t27.5 -136q0 -73 -27.5 -136.5t-75 -111.5t-111.5 -75.5t-137 -27.5q-72 0 -136 27.5t-111.5 75.5t-75 111.5t-27.5 136.5v0z" />
    <glyph glyph-name="uniE945" unicode="&#xe945;" 
d="M920 750h-812q-12 0 -20.5 -8.5t-8.5 -21.5v-573q0 -13 8.5 -21.5t20.5 -8.5h812q12 0 20.5 8.5t8.5 21.5v573q0 13 -8.5 21.5t-20.5 8.5v0zM890 176h-752v515h752v-515zM215 552l284 -175q3 -2 7 -3t8 -1t8 1t7 3l284 175q10 6 13 18t-3 22q-7 11 -19 14t-22 -4
l-268 -165l-268 165q-10 7 -22 4t-18 -14q-7 -10 -4 -22t13 -18v0v0z" />
    <glyph glyph-name="uniE946" unicode="&#xe946;" 
d="M790 255q41 52 64.5 115.5t23.5 134.5q0 82 -31.5 155t-86 127.5t-127 86t-155.5 31.5t-155.5 -31.5t-127 -86t-86 -127.5t-31.5 -155q0 -83 31.5 -155.5t86 -127t127 -86t155.5 -31.5q50 0 96.5 12t88.5 34l-1 -1l155 -176l124 110l-151 171v0zM132 505q0 71 27.5 134
t74.5 110t109.5 74t134.5 27q71 0 134 -27t110 -74t74.5 -110t27.5 -134q0 -72 -27.5 -135t-74.5 -109.5t-110 -74t-134 -27.5q-72 0 -134.5 27.5t-109.5 74t-74.5 109.5t-27.5 135v0zM505 500q-2 0 -4.5 -1t-3.5 -3q-1 0 -1 -0.5t-1 -1.5h-14q-1 1 -1 1.5v0.5q-2 2 -4 3
t-5 1h-87q-3 0 -5 -1t-3 -2q-2 -2 -2.5 -4t-0.5 -4q0 -8 2.5 -28t14.5 -30q7 -6 17.5 -9.5t21.5 -3.5t19.5 3.5t14.5 9.5q6 7 10 19t6 22h18q2 -10 6 -22t10 -19q6 -6 14.5 -9.5t19.5 -3.5t21.5 3.5t17.5 9.5q12 10 14.5 30l3.5 28q0 2 -1 4t-3 4q-1 1 -3 2t-5 1h-87v0z
M446 446q-2 -3 -6.5 -4t-10.5 -1q-7 0 -14 2t-11 5q-3 3 -5.5 11.5t-3.5 18.5h63q-2 -10 -5.5 -19.5t-6.5 -12.5zM572 448q-4 -3 -11 -5t-14 -2q-6 0 -10.5 1t-6.5 4q-3 3 -6 12.5t-6 19.5h63q-1 -10 -3.5 -18.5t-5.5 -11.5v0zM565 593q-1 4 -5 6.5t-8 1.5q-31 -7 -63.5 -7
t-64.5 7q-4 1 -8 -1.5t-5 -6.5q-1 -5 1.5 -8.5t6.5 -4.5q17 -4 34.5 -6t34.5 -2t34.5 2t34.5 6q4 1 6.5 4.5t1.5 8.5zM319 548q42 -9 84 -14t85 -5t85 5t84 14q4 1 6.5 4.5t2.5 7.5q-6 57 -43 100.5t-88 57.5v14q0 4 -3.5 7.5t-8.5 3.5q-4 0 -7.5 -3.5t-3.5 -7.5v-9
q-6 1 -12 1.5t-12 0.5t-12 -0.5t-12 -1.5v9q0 4 -3.5 7.5t-7.5 3.5q-5 0 -8 -3.5t-3 -7.5v-14q-52 -14 -89 -57.5t-43 -100.5q0 -4 2.5 -7.5t6.5 -4.5v0zM442 695v-34q0 -5 3 -8t8 -3q4 0 7.5 3t3.5 8v40q6 1 12 1.5t12 0.5t12 -0.5t12 -1.5v-40q0 -5 3.5 -8t7.5 -3
q5 0 8.5 3t3.5 8v34q41 -13 70.5 -47.5t36.5 -79.5q-76 -16 -154 -16t-154 16q7 45 37 79t71 48v0zM656 533q-11 4 -21.5 -3.5t-12.5 -9.5q-3 -3 -3 -8t4 -8q3 -3 7.5 -3t7.5 4q2 2 5.5 4t4.5 3q1 -1 2 -4.5t1 -10.5q1 -28 -13.5 -38t-15.5 -11q-3 -1 -5 -3t-2 -4l-1 -2
v-1.5v-0.5q-7 -76 -52.5 -105t-73.5 -29t-73.5 29t-52.5 105v0.5v1.5l-1 2q0 2 -2 4t-5 3l-15 10t-14 39q0 7 1 10.5t2 4.5q2 -1 5 -3t5 -4q3 -4 7.5 -4t7.5 3q4 3 4 8t-3 8q-2 2 -12.5 9.5t-21.5 3.5q-12 -4 -14.5 -17t-2.5 -18q-1 -29 12 -45.5t26 -22.5q8 -77 57 -113
t90 -36t90 36t57 113q13 6 26 22.5t12 45.5q0 5 -2.5 18t-14.5 17v0z" />
    <glyph glyph-name="uniE947" unicode="&#xe947;" 
d="M936 298q-1 6 -3.5 11t-6.5 9q-8 8 -18.5 10t-21.5 -3q-32 -15 -64 -22t-66 -7q-42 0 -80.5 10.5t-74.5 30.5q-35 21 -63.5 49t-48.5 64q-21 35 -31.5 74t-10.5 81q0 33 6.5 64t19.5 60t31.5 55t43.5 48q9 9 11 19t-3 22t-13.5 17.5t-20.5 4.5q-44 -1 -85 -11t-80 -28
q-39 -17 -72.5 -40.5t-61.5 -52.5t-50 -63.5t-39 -73.5q-16 -40 -24 -81.5t-8 -84.5q0 -45 8.5 -87t25.5 -83q18 -40 41 -75t53 -64q29 -29 63.5 -52.5t75.5 -40.5q40 -17 82.5 -26t86.5 -9q64 0 122.5 17.5t112.5 51.5q54 35 94 81t67 104q2 5 2.5 10.5t-0.5 10.5v0v0z
M693 131q-36 -18 -75 -26.5t-80 -8.5q-37 0 -72.5 7t-68.5 22q-34 14 -63 33.5t-53 44.5q-24 24 -43.5 53t-34.5 62q-14 34 -21.5 69.5t-7.5 72.5q0 61 18.5 115.5t54.5 102.5t82.5 80.5t103.5 49.5q-29 -47 -44 -97.5t-15 -105.5q0 -52 13 -99.5t38 -91.5q26 -45 61 -79.5
t79 -60.5q44 -25 91.5 -38t99.5 -13q16 0 31.5 1.5t31.5 3.5q-26 -31 -57.5 -55.5t-68.5 -41.5v0v0z" />
    <glyph glyph-name="uniE948" unicode="&#xe948;" 
d="M881 614l-1 2l-1 2h-504l-64 -111l64 -112h207l20 -35l-16 -27h-247l-99 174l99 174h504l-1 2l-97 170h-479l-240 -419l106 -185h503l64 111l-64 112h-207l-20 35l16 27h247l99 -174l-99 -174h-504l2 -2l1 -2l96 -168h479l239 420z" />
    <glyph glyph-name="uniE949" unicode="&#xe949;" 
d="M512 548q-72 0 -122.5 51t-50.5 123t50.5 122.5t122.5 50.5t122.5 -50.5t50.5 -122.5t-50.5 -123t-122.5 -51zM512 881q-66 0 -112.5 -46.5t-46.5 -112.5t46.5 -112.5t112.5 -46.5t112.5 46.5t46.5 112.5t-46.5 112.5t-112.5 46.5zM491 648q-6 0 -12 2.5t-11 6.5l-42 42
q-9 9 -9 22.5t9 23.5q5 4 11 6.5t12 2.5q7 0 13 -2.5t10 -6.5l19 -19l61 60q4 5 10 7.5t13 2.5q6 0 12 -2.5t11 -7.5q4 -4 6.5 -10t2.5 -12q0 -7 -2.5 -13t-6.5 -10l-84 -84q-5 -4 -10.5 -6.5t-12.5 -2.5v0zM449 740q-3 0 -6.5 -1.5t-5.5 -4.5q-6 -5 -6 -12.5t6 -12.5
l41 -42q3 -2 6 -3.5t7 -1.5t7 1.5t6 3.5l83 84q3 2 4.5 5.5t1.5 7.5q0 3 -1.5 6.5t-4.5 5.5q-2 3 -5.5 4.5t-6.5 1.5q-4 0 -7 -1.5t-6 -4.5l-71 -71l-29 29q-3 3 -6 4.5t-7 1.5v0zM185 625q-49 0 -83.5 34.5t-34.5 83.5t34.5 83t83.5 34q48 0 82.5 -34t34.5 -83t-34.5 -83.5
t-82.5 -34.5zM185 821q-33 0 -56 -23t-23 -55t23 -55t56 -23q32 0 55 23t23 55t-23 55t-55 23zM409 27h-97q-17 0 -29 12t-12 28v131h-90q-43 0 -73.5 30.5t-30.5 73.5v203q0 45 31.5 76.5t76.5 31.5q44 0 75.5 -31.5t31.5 -76.5v-130h67q37 0 64 -27t27 -64v-217
q0 -16 -12 -28t-29 -12zM185 574q-29 0 -49 -20.5t-20 -48.5v-203q0 -27 19 -46t46 -19h110q8 0 14 -5.5t6 -14.5v-150v-0.5t1 -0.5h97q1 0 1 0.5v0.5v217q0 21 -15 36t-36 15h-86q-8 0 -14 6t-6 14v150q0 28 -20 48.5t-48 20.5v0zM839 625q-48 0 -82.5 34.5t-34.5 83.5
t34.5 83t82.5 34q49 0 83.5 -34t34.5 -83t-34.5 -83.5t-83.5 -34.5zM839 821q-32 0 -55 -23t-23 -55t23 -55t55 -23q33 0 56 23t23 55t-23 55t-56 23zM712 27h-97q-17 0 -29 12t-12 28v217q0 37 27 64t64 27h67v130q0 45 31.5 76.5t75.5 31.5q45 0 76.5 -31.5t31.5 -76.5
v-203q0 -43 -30.5 -73.5t-73.5 -30.5h-90v-131q0 -16 -12 -28t-29 -12v0zM665 335q-21 0 -36 -15t-15 -36v-217v-0.5t1 -0.5h97q1 0 1 0.5v0.5v150q0 9 6 14.5t14 5.5h110q27 0 46 19t19 46v203q0 28 -20 48.5t-49 20.5q-28 0 -48 -20.5t-20 -48.5v-150q0 -8 -6 -14t-14 -6
h-86v0zM658 453q11 0 18.5 7.5t7.5 18.5q0 10 -7.5 17.5t-18.5 7.5h-292q-11 0 -18.5 -7.5t-7.5 -17.5q0 -11 7.5 -18.5t18.5 -7.5h121v-390q0 -11 7.5 -18t17.5 -7t17.5 7t7.5 18v390h121v0z" />
    <glyph glyph-name="uniE94A" unicode="&#xe94a;" 
d="M951 693q-7 7 -15.5 10.5t-18.5 3.5h-211q-15 0 -31 -5t-34 -15v166q0 10 -3.5 18.5t-10.5 15.5t-15.5 10.5t-18.5 3.5h-210q-11 0 -22 -2.5t-23 -7.5t-21.5 -11t-16.5 -13l-207 -207q-7 -7 -13 -16.5t-11 -21.5t-7.5 -23t-2.5 -22v-339q0 -11 3.5 -19.5t10.5 -15.5
t15.5 -10.5t18.5 -3.5h276v-146q0 -10 3.5 -18.5t10.5 -15.5t15.5 -10.5t18.5 -3.5h486q10 0 18.5 3.5t15.5 10.5t10.5 15.5t3.5 18.5v615q0 11 -3.5 19.5t-10.5 15.5v0v0zM641 623v-175h-174zM330 832v-202h-203zM417 466q-7 -7 -13 -16.5t-11 -21.5t-7.5 -23.5t-2.5 -21.5
v-145h-279v351h209q10 0 21.5 0.5t19.5 7.5q7 7 7.5 13t0.5 16v232h237v-212l-182 -180v0zM915 42h-485v362h210q10 0 18.5 3.5t15.5 10.5t10.5 11t3.5 14v220h227v-621v0z" />
    <glyph glyph-name="uniE94B" unicode="&#xe94b;" 
d="M961 492q-8 13 -21 22t-28 11q-15 3 -30 -1t-28 -13l-64 -52q-8 9 -18 14.5t-22 7.5q-15 3 -30 -1t-27 -13l-38 -30h-97q-11 0 -22.5 2.5t-22.5 8.5l-34 17q-22 11 -46 16.5t-48 4.5q-34 -1 -65.5 -14t-56.5 -36l-186 -170q-6 -6 -7 -15t5 -16l97 -126q3 -4 8 -6t10 -2
q3 0 6 0.5t6 2.5l117 73q6 4 13 6t15 2h271q29 0 56.5 9.5t50.5 27.5l219 175q22 18 26.5 45t-9.5 50v0v0zM719 450q4 4 11.5 7t13.5 2q4 -1 13.5 -8t12.5 -9l-54 -42q-2 5 -12 15l-14 14l29 21v0zM925 425l-220 -175q-16 -13 -36.5 -20.5t-41.5 -7.5l-276 4q-14 0 -27 -3.5
t-25 -10.5l-105 -71l-87 109l184 164q20 17 43.5 27t49.5 11q19 1 37.5 -3.5t34.5 -12.5l35 -18q15 -7 31.5 -11t33.5 -4h98q9 0 18 -11t9 -21q0 -9 -3.5 -22t-17.5 -13l-271 -15q-9 -1 -15.5 -8t-5.5 -16q1 -10 6 -12t14 -1l272 16q21 1 36.5 18.5t22.5 37.5l162 129
q4 4 9.5 5.5t11.5 0.5t15.5 -14t13.5 -17q14 -13 4 -24l-10 -11v0zM508 503h-19q-6 0 -10 4t-4 10v179q0 5 4 9.5t10 4.5h19q6 0 10 -4.5t4 -9.5v-179q0 -6 -4 -10t-10 -4v0zM489 698q-1 0 -1.5 -0.5t-0.5 -1.5v-179q0 -1 0.5 -1.5t1.5 -0.5h19q1 0 1.5 0.5t0.5 1.5v179
q0 1 -0.5 1.5t-1.5 0.5h-19zM618 503h-19q-6 0 -10 4t-4 10v96q0 7 6 10.5t12 3.5h12q5 0 11.5 -3.5t6.5 -10.5v-96q0 -6 -4.5 -10t-10.5 -4v0zM597 613v-96q0 -1 0.5 -1.5t1.5 -0.5h19q1 0 2 0.5t1 1.5v96q-1 1 -3 2t-3 1h-12q-2 0 -4 -1t-2 -2v0zM675 503h-19q-6 0 -10 4
t-4 10v156q0 6 4 10.5t10 4.5h19q6 0 10 -4.5t4 -10.5v-156q0 -6 -4 -10t-10 -4zM656 676q-1 0 -2 -1t-1 -2v-156q0 -1 1 -1.5t2 -0.5h19q1 0 1.5 0.5t0.5 1.5v156q0 1 -0.5 2t-1.5 1h-19zM565 503h-19q-6 0 -10.5 4t-4.5 10v264q0 6 4.5 10t10.5 4h19q5 0 9.5 -4t4.5 -10
v-264q0 -6 -4.5 -10t-9.5 -4zM546 784q-1 0 -2 -1t-1 -2v-264q0 -1 1 -1.5t2 -0.5h19q1 0 1.5 0.5t0.5 1.5v264q0 1 -0.5 2t-1.5 1h-19z" />
    <glyph glyph-name="uniE94C" unicode="&#xe94c;" 
d="M325 657v100h-33v-100h-101v-33h101v-101h33v101h100v33h-100zM232 147l71 71l83 -83l24 23l-83 83l71 71l-24 24l-71 -71l-59 59l-23 -24l59 -59l-71 -71l23 -23v0zM796 332l24 -24l-166 -165l-23 23l165 166v0zM610 657h234v-33h-234v33zM844 891h-653q-48 0 -82.5 -34
t-34.5 -83v-652q0 -49 34.5 -83t82.5 -34h653q48 0 82.5 34t34.5 83v652q0 49 -34.5 83t-82.5 34v0zM511 49h-313q-33 0 -56 23t-23 56v284h392v-363v0zM507 460h-384v305q0 32 22.5 55t54.5 23h307v-383v0zM914 129q0 -32 -22.5 -55t-55.5 -23h-280v359h358v-281v0z
M914 458h-358v386h280q33 0 55.5 -22.5t22.5 -55.5v-308v0z" />
    <glyph glyph-name="uniE94D" unicode="&#xe94d;" 
d="M828 867h-616q-46 0 -78.5 -32.5t-32.5 -78.5v-616q0 -46 32.5 -78.5t78.5 -32.5h616q45 0 77.5 32.5t32.5 78.5v616q0 46 -32.5 78.5t-77.5 32.5v0zM514 71h-296q-31 0 -53 22t-22 53v268h371v-343v0zM509 459h-362v289q0 30 21.5 51.5t51.5 21.5h289v-362v0zM894 147
q0 -30 -21.5 -52t-51.5 -22h-265v339h338v-265v0zM894 458h-339v364h266q30 0 51.5 -21.5t21.5 -51.5v-291v0zM326 527q-45 0 -77 31.5t-32 76.5q0 46 32 77.5t77 31.5t77 -31.5t32 -77.5q0 -45 -32 -76.5t-77 -31.5zM326 716q-33 0 -56.5 -23.5t-23.5 -57.5
q0 -33 23.5 -56.5t56.5 -23.5q34 0 57.5 23.5t23.5 56.5q0 34 -23.5 57.5t-57.5 23.5zM385 714l20 -20l-136 -136l-20 20l136 136v0zM718 527q-45 0 -76.5 31.5t-31.5 76.5q0 46 31.5 77.5t76.5 31.5t77 -31.5t32 -77.5q0 -45 -32 -76.5t-77 -31.5zM718 716
q-33 0 -56.5 -23.5t-23.5 -57.5q0 -33 23.5 -56.5t56.5 -23.5q34 0 57.5 23.5t23.5 56.5q0 34 -23.5 57.5t-57.5 23.5zM777 714l20 -20l-136 -136l-20 20zM326 148q-45 0 -77 32t-32 77t32 77t77 32t77 -32t32 -77t-32 -77t-77 -32zM326 337q-33 0 -56.5 -23.5t-23.5 -56.5
q0 -34 23.5 -57.5t56.5 -23.5q34 0 57.5 23.5t23.5 57.5q0 33 -23.5 56.5t-57.5 23.5zM385 335l20 -20l-136 -135l-20 20zM718 148q-45 0 -76.5 32t-31.5 77t31.5 77t76.5 32t77 -32t32 -77t-32 -77t-77 -32zM718 337q-33 0 -56.5 -23.5t-23.5 -56.5q0 -34 23.5 -57.5
t56.5 -23.5q34 0 57.5 23.5t23.5 57.5q0 33 -23.5 56.5t-57.5 23.5zM777 335l20 -20l-136 -135l-20 20z" />
    <glyph glyph-name="uniE94E" unicode="&#xe94e;" 
d="M428 748q0 9 6.5 15t15.5 6h38v38q0 9 6.5 15.5t15.5 6.5t15 -6.5t6 -15.5v-38h38q9 0 15.5 -6t6.5 -15q0 -10 -6.5 -16t-15.5 -6h-38v-38q0 -9 -6 -15.5t-15 -6.5t-15.5 6.5t-6.5 15.5v38h-38q-9 0 -15.5 6t-6.5 16v0v0zM954 9q0 -9 -6.5 -15.5t-15.5 -6.5h-845
q-9 0 -15 6.5t-6 15.5t6 15.5t15 6.5h84v717q0 9 6.5 15t15.5 6h156q9 59 54 99.5t107 40.5q61 0 106.5 -40.5t53.5 -99.5h156q5 0 9 -1.5t7 -4.5t4.5 -7t1.5 -8v-717h84q9 0 15.5 -6.5t6.5 -15.5v0v0zM392 748q0 -49 34.5 -83.5t83.5 -34.5q48 0 82.5 34.5t34.5 83.5
q0 48 -34.5 82.5t-82.5 34.5q-49 0 -83.5 -34.5t-34.5 -82.5v0zM488 188h-113v-157h113v157zM644 188h-113v-157h113v157zM804 726h-134q-8 -59 -53.5 -99.5t-106.5 -40.5q-62 0 -107 40.5t-53 99.5h-135v-695h117v179q0 9 6 15t15 6h313q9 0 15.5 -6t6.5 -15v-179h116v695
v0zM660 533h74q9 0 15.5 -6t6.5 -16v-194q0 -9 -6.5 -15.5t-15.5 -6.5h-74q-9 0 -15.5 6.5t-6.5 15.5v194q0 10 6.5 16t15.5 6v0zM681 339h31v151h-31v-151zM569 511v-194q0 -9 -6.5 -15.5t-15.5 -6.5h-75q-9 0 -15 6.5t-6 15.5v194q0 10 6 16t15 6h75q9 0 15.5 -6t6.5 -16
v0zM525 490h-31v-151h31v151zM381 511v-194q0 -9 -6 -15.5t-15 -6.5h-75q-9 0 -15.5 6.5t-6.5 15.5v194q0 10 6.5 16t15.5 6h75q9 0 15 -6t6 -16v0zM338 490h-31v-151h31v151z" />
    <glyph glyph-name="uniE94F" unicode="&#xe94f;" 
d="M710 920h-476q-24 0 -41 -17t-17 -41v-828q0 -24 17 -41t41 -17h582q24 0 41 17t17 41v707l-164 179v0zM723 833l72 -78h-72v78zM826 34q0 -4 -3 -6.5t-7 -2.5h-582q-3 0 -6 2.5t-3 6.5v828q0 4 3 6.5t6 2.5h441v-140q0 -10 7 -17.5t17 -7.5h127v-672v0zM311 661h413
q7 0 12.5 -5t5.5 -13q0 -7 -5.5 -12.5t-12.5 -5.5h-413q-8 0 -13 5.5t-5 12.5q0 8 5 13t13 5v0zM742 521q0 -8 -5.5 -13t-12.5 -5h-413q-8 0 -13 5t-5 13q0 7 5 12.5t13 5.5h413q7 0 12.5 -5.5t5.5 -12.5v0zM742 402q0 -7 -5.5 -12.5t-12.5 -5.5h-413q-8 0 -13 5.5t-5 12.5
q0 8 5 13.5t13 5.5h413q7 0 12.5 -5.5t5.5 -13.5v0zM742 282q0 -7 -5.5 -12.5t-12.5 -5.5h-413q-8 0 -13 5.5t-5 12.5q0 8 5 13t13 5h413q7 0 12.5 -5t5.5 -13v0z" />
    <glyph glyph-name="uniE950" unicode="&#xe950;" 
d="M904 852q-30 31 -67.5 46t-77 15t-77.5 -15t-68 -46l-532 -531q-3 -3 -4.5 -7t-2.5 -8l-39 -292q-1 -7 1 -12.5t6 -10.5q4 -3 9 -5.5t10 -2.5h2t1 1l176 23q11 2 18 10.5t5 19.5q-1 11 -10 18t-20 5l-141 -19l28 204l214 -214q4 -4 9 -6t10 -2t10 2t9 6l531 531
q29 29 45 66.5t16 79.5q0 41 -16 78.5t-45 65.5v0zM625 787l89 -89l-485 -486l-90 90zM354 87l-87 88l485 485l87 -87l-485 -486v0zM876 611l-213 214q20 16 45 25t51 9q31 0 58.5 -11.5t49.5 -32.5q21 -22 32.5 -49.5t11.5 -57.5q0 -27 -9 -52t-26 -45v0z" />
    <glyph glyph-name="uniE951" unicode="&#xe951;" 
d="M969 736q-4 8 -12 13t-17 4l-128 -7l7 128q0 10 -4.5 18t-13.5 11q-3 2 -6 2.5t-6 0.5q-6 0 -11.5 -2.5t-9.5 -6.5l-94 -94q-4 -4 -6 -9.5t-2 -11.5v-139l-8 -7q-48 41 -109 64.5t-129 23.5q-76 0 -143 -28.5t-117 -78.5t-79 -117t-29 -143t29 -142.5t79 -116.5t117 -79
t143 -29t142.5 29t116.5 79t79 116.5t29 142.5q0 67 -23 127.5t-63 107.5l8 8h139q6 0 11.5 2.5t9.5 6.5l94 94q6 6 8 15t-2 18v0v0zM747 357q0 -67 -25.5 -127t-70 -104.5t-104.5 -70t-127 -25.5q-68 0 -127.5 25.5t-104 70t-70.5 104.5t-26 127q0 68 26 127.5t70.5 104
t104 70.5t127.5 26q59 0 112.5 -20t96.5 -56l-76 -76q-28 21 -62 33t-71 12q-46 0 -86 -17.5t-70 -47.5t-47.5 -70t-17.5 -86q0 -45 17.5 -85.5t47.5 -70.5t70 -47t86 -17q45 0 85.5 17t70 47t47 70.5t17.5 85.5q0 36 -11 69t-31 60l77 76q34 -42 53 -94.5t19 -110.5v0v0z
M593 357q0 -72 -51 -122.5t-122 -50.5q-72 0 -123 50.5t-51 122.5t51 123t123 51q26 0 50.5 -8t45.5 -21l-118 -119q-11 -11 -11 -26t11 -26q5 -5 11.5 -7.5t14.5 -2.5q7 0 13.5 2.5t11.5 7.5l118 118q12 -20 19 -43.5t7 -48.5v0v0z" />
    <glyph glyph-name="uniE952" unicode="&#xe952;" 
d="M111 490h335q13 0 22 9t9 22v336q0 13 -9 22t-22 9h-335q-13 0 -22 -9t-9 -22v-336q0 -12 9 -21.5t22 -9.5v0v0zM142 826h273v-274h-273v274v0zM959 857q0 13 -9 22t-22 9h-335q-13 0 -22 -9t-9 -22v-336q0 -13 9 -22t22 -9h335q13 0 22 9t9 22v336zM897 552h-273v274
h273v-274v0zM111 8h335q13 0 22 9t9 22v336q0 13 -9 22t-22 9h-335q-13 0 -22 -9t-9 -22v-336q0 -12 9 -21.5t22 -9.5v0v0zM142 344h273v-274h-273v274v0zM928 406h-335q-13 0 -22 -9t-9 -22v-336q0 -13 9 -22t22 -9h335q13 0 22 9t9 22v336q0 12 -9 21.5t-22 9.5v0v0z
M897 70h-273v274h273v-274v0z" />
    <glyph glyph-name="uniE953" unicode="&#xe953;" 
d="M603 424h-34q-9 0 -15.5 -6.5t-6.5 -16.5v-34q0 -9 6.5 -15.5t15.5 -6.5h34q9 0 16 6.5t7 15.5v34q0 10 -7 16.5t-16 6.5v0zM588 726h-4q-45 0 -77.5 -32t-32.5 -78q0 -17 12.5 -23t29.5 -6t29 6t12 23q0 11 8 19t19 8h4q12 0 19.5 -8t7.5 -19q0 -9 -6.5 -18t-17.5 -22
q-16 -18 -31 -40.5t-15 -55.5q0 -18 12 -24t29 -6t27 6.5t15 23.5q2 9 7.5 18.5t17.5 22.5q15 17 30 40t15 55q0 46 -32 78t-78 32v0v0zM839 290q52 51 77.5 116.5t25.5 133t-25.5 133t-77.5 117.5q-52 51 -117 77t-133 26t-133 -26t-117 -77q-44 -44 -69 -97t-32 -109.5
t5 -113t43 -107.5l2 -6t-4 -12q-17 -17 -47.5 -47t-60 -59.5l-51.5 -51.5l-22 -22q-26 -27 -31 -60.5t19 -57.5l5 -6q24 -23 57.5 -18.5t60.5 31.5l180 180q6 6 12 4l6 -2q51 -30 107.5 -42t113 -5.5t109.5 32t97 69.5v0v0zM370 320q-46 46 -68.5 103t-22.5 116.5t22.5 117
t68.5 102.5q45 45 102 68t117 23t117 -23t102 -68q46 -45 68.5 -102.5t22.5 -117t-22.5 -116.5t-68.5 -103q-45 -45 -102 -68t-117 -23t-117 23t-102 68v0z" />
    <glyph glyph-name="uniE954" unicode="&#xe954;" 
d="M962 835h-587q-1 0 -1.5 -1t-0.5 -2v-52q0 -1 0.5 -1.5t1.5 -0.5h587q1 0 2 0.5t1 1.5v52q0 1 -1 2t-2 1v0zM375 683h292q1 0 2 0.5t1 1.5v53q0 1 -1 1.5l-1 0.5h-293q-1 0 -1.5 -0.5t-0.5 -1.5v-53q0 -1 0.5 -1.5t1.5 -0.5v0zM962 527h-587q-1 0 -1.5 -0.5t-0.5 -1.5
v-52q0 -1 0.5 -2t1.5 -1h587q1 0 2 1t1 2v52q0 1 -1 1.5t-2 0.5v0zM375 376h292q1 0 2 0.5t1 1.5v52q0 1 -1 1.5l-1 0.5h-293q-1 0 -1.5 -0.5t-0.5 -1.5v-52q0 -1 0.5 -1.5t1.5 -0.5v0zM962 220h-587q-1 0 -1.5 -1t-0.5 -2v-52q0 -1 0.5 -1.5t1.5 -0.5h587q1 0 2 0.5t1 1.5
v52q0 1 -1 2t-2 1v0zM668 125h-293q-1 0 -1.5 -0.5t-0.5 -1.5v-53q0 -1 0.5 -1.5t1.5 -0.5h292q1 0 2 0.5t1 1.5v53q0 1 -1 1.5l-1 0.5v0zM167 752l-47 47l-50 -49l97 -96l49 49l112 112l-49 49l-112 -112v0zM167 444l-47 48l-50 -49l97 -97l49 49l112 112l-49 50l-112 -113
v0zM167 137l-47 47l-50 -49l97 -96l161 161l-49 49l-112 -112v0z" />
    <glyph glyph-name="uniE955" unicode="&#xe955;" 
d="M533 632q12 12 12 28.5t-12 28.5l-157 157q-13 13 -29.5 19.5t-34.5 6.5t-34.5 -6.5t-29.5 -19.5l-157 -157q-13 -13 -20 -29.5t-7 -34.5t7 -35t20 -30l157 -157q6 -5 13.5 -8t14.5 -3q8 0 15.5 3t13.5 8q12 12 12 29t-12 29l-157 157q-2 2 -2.5 3.5t-0.5 3.5q0 1 0.5 3
t2.5 4l157 157q2 1 4 1.5t3 0.5q2 0 4 -0.5t3 -1.5l157 -157q12 -12 29 -12t28 12v0zM933 290l-157 157q-12 11 -28.5 11t-28.5 -11q-12 -12 -12 -29t12 -29l157 -157q2 -2 2.5 -3.5t0.5 -3.5q0 -1 -0.5 -3t-2.5 -4l-157 -157q-3 -3 -7 -3t-7 3l-157 157q-12 12 -29 12
t-28 -12q-12 -12 -12 -28.5t12 -28.5l157 -157q13 -13 30 -19.5t34 -6.5t34 6.5t30 19.5l157 157q13 13 20 29.5t7 34.5q0 19 -7 35.5t-20 29.5v0zM284 254l-57 -57q-12 -12 -12 -28.5t12 -28.5q5 -6 12.5 -9t15.5 -3t15.5 3t13.5 9l57 57q12 12 12 28.5t-12 28.5t-28.5 12
t-28.5 -12zM267 311q0 17 -12 28.5t-28 11.5h-58q-16 0 -28 -11.5t-12 -28.5t12 -29t28 -12h58q16 0 28 12t12 29zM398 180q-17 0 -29 -12t-12 -28v-58q0 -16 12 -28t29 -12t28.5 12t11.5 28v58q0 16 -11.5 28t-28.5 12zM712 584q7 0 14.5 3t13.5 9l57 57q12 12 12 29
t-12 28q-12 12 -28.5 12t-28.5 -12l-57 -57q-11 -12 -11 -28.5t11 -28.5q6 -6 13.5 -9t15.5 -3zM757 539q0 -17 12 -28.5t28 -11.5h57q17 0 29 11.5t12 28.5t-12 29t-29 12h-57q-16 0 -28 -12t-12 -29zM626 670q17 0 29 12t12 28v58q0 16 -12 28t-29 12t-28.5 -12t-11.5 -28
v-58q0 -16 11.5 -28t28.5 -12z" />
    <glyph glyph-name="uniE956" unicode="&#xe956;" 
d="M896 553h-40q-5 17 -11.5 33t-14.5 31l28 28q24 24 24 59t-24 59l-30 31q-12 11 -27.5 17.5t-32.5 6.5v0q-16 0 -31.5 -6.5t-27.5 -17.5l-28 -29q-15 8 -31 15t-33 12v40q0 35 -24.5 59.5t-59.5 24.5h-42q-35 0 -59.5 -24.5t-24.5 -59.5v-40q-17 -5 -33 -11.5t-31 -14.5
l-28 28q-25 24 -59.5 24t-59.5 -24l-30 -30q-25 -25 -25 -59.5t25 -59.5l28 -28q-8 -15 -14.5 -31t-11.5 -33h-40q-35 0 -59.5 -24.5t-24.5 -59.5v-42q0 -35 24.5 -59.5t59.5 -24.5h40q5 -17 11.5 -33t14.5 -31l-28 -28q-24 -25 -24 -59.5t24 -59.5l30 -30
q12 -11 27.5 -17.5t32.5 -6.5v0q16 0 31.5 6.5t27.5 17.5l28 28q15 -8 31 -14.5t33 -11.5v-40q0 -34 24.5 -59t59.5 -25h42q35 0 59.5 25t24.5 59v40q17 5 33 11.5t31 14.5l28 -28q12 -12 27.5 -18t31.5 -6q17 0 32.5 6.5t27.5 17.5l30 30q24 25 24 59.5t-24 59.5l-28 28
q8 15 14.5 31t11.5 33h40q35 0 59.5 24.5t24.5 59.5v42q0 35 -24.5 59.5t-59.5 24.5v0zM512 256q-79 0 -135.5 56t-56.5 136q0 79 56.5 135.5t135.5 56.5t135.5 -56.5t56.5 -135.5t-56.5 -135.5t-135.5 -56.5v0z" />
  </font>
</defs>
</svg>
